<svg width="44" height="44" viewBox="0 0 44 44" fill="none" xmlns="http://www.w3.org/2000/svg">
<rect width="44" height="44" rx="22" fill="#FEBF2C"/>
<path d="M28.18 32.02C28.021 32.02 27.861 31.982 27.714 31.905L22 28.899L16.285 31.904C15.949 32.083 15.54 32.052 15.232 31.828C14.924 31.604 14.77 31.225 14.834 30.85L15.925 24.489L11.302 19.986C11.03 19.721 10.931 19.324 11.049 18.961C11.166 18.6 11.479 18.335 11.855 18.281L18.246 17.346L21.103 11.557C21.44 10.874 22.559 10.874 22.896 11.557L25.753 17.346L32.144 18.281C32.521 18.336 32.833 18.6 32.951 18.962C33.068 19.324 32.971 19.721 32.697 19.987L28.074 24.49L29.165 30.851C29.229 31.226 29.075 31.605 28.768 31.829C28.593 31.955 28.387 32.02 28.18 32.02ZM14.148 19.966L17.697 23.423C17.933 23.653 18.041 23.985 17.985 24.309L17.147 29.192L21.534 26.885C21.825 26.731 22.174 26.731 22.465 26.885L26.851 29.192L26.014 24.309C25.958 23.985 26.066 23.654 26.302 23.423L29.851 19.966L24.945 19.249C24.62 19.202 24.339 18.997 24.193 18.702L22 14.259L19.807 18.702C19.661 18.997 19.381 19.202 19.055 19.249L14.148 19.966Z" fill="white"/>
</svg>