<svg width="44" height="45" viewBox="0 0 44 45" fill="none" xmlns="http://www.w3.org/2000/svg">
<rect y="0.5" width="44" height="44" rx="22" fill="#DB12EF"/>
<path d="M18.01 25.5C17.458 25.5 17.005 25.053 17.005 24.5C17.005 23.947 17.448 23.5 18 23.5H18.01C18.562 23.5 19.01 23.947 19.01 24.5C19.01 25.053 18.562 25.5 18.01 25.5Z" fill="white"/>
<path d="M21.005 24.5C21.005 25.053 21.458 25.5 22.01 25.5C22.562 25.5 23.01 25.053 23.01 24.5C23.01 23.947 22.562 23.5 22.01 23.5H22C21.448 23.5 21.005 23.947 21.005 24.5Z" fill="white"/>
<path d="M26.01 25.5C25.457 25.5 25.005 25.053 25.005 24.5C25.005 23.947 25.447 23.5 26 23.5H26.01C26.563 23.5 27.01 23.947 27.01 24.5C27.01 25.053 26.563 25.5 26.01 25.5Z" fill="white"/>
<path d="M17.005 28.5C17.005 29.053 17.458 29.5 18.01 29.5C18.562 29.5 19.01 29.053 19.01 28.5C19.01 27.947 18.562 27.5 18.01 27.5H18C17.448 27.5 17.005 27.947 17.005 28.5Z" fill="white"/>
<path d="M22.01 29.5C21.458 29.5 21.005 29.053 21.005 28.5C21.005 27.947 21.448 27.5 22 27.5H22.01C22.562 27.5 23.01 27.947 23.01 28.5C23.01 29.053 22.562 29.5 22.01 29.5Z" fill="white"/>
<path d="M25.005 28.5C25.005 29.053 25.457 29.5 26.01 29.5C26.563 29.5 27.01 29.053 27.01 28.5C27.01 27.947 26.563 27.5 26.01 27.5H26C25.447 27.5 25.005 27.947 25.005 28.5Z" fill="white"/>
<path fill-rule="evenodd" clip-rule="evenodd" d="M32 16.5C32 14.846 30.654 13.5 29 13.5H27V12.5C27 11.948 26.553 11.5 26 11.5C25.447 11.5 25 11.948 25 12.5V13.5H19V12.5C19 11.948 18.552 11.5 18 11.5C17.448 11.5 17 11.948 17 12.5V13.5H15C13.346 13.5 12 14.846 12 16.5V30.5C12 32.154 13.346 33.5 15 33.5H29C30.654 33.5 32 32.154 32 30.5V16.5ZM25 16.5C25 17.052 25.447 17.5 26 17.5C26.553 17.5 27 17.052 27 16.5V15.5H29C29.552 15.5 30 15.949 30 16.5V19.5H14V16.5C14 15.949 14.449 15.5 15 15.5H17V16.5C17 17.052 17.448 17.5 18 17.5C18.552 17.5 19 17.052 19 16.5V15.5H25V16.5ZM14 21.5H30V30.5C30 31.052 29.552 31.5 29 31.5H15C14.449 31.5 14 31.052 14 30.5V21.5Z" fill="white"/>
</svg>
