<svg xmlns="http://www.w3.org/2000/svg" width="28" height="31" fill="none" viewBox="0 0 28 31"><path fill="#FEBF2C" d="M0 8.4436C0 6.55799 0 5.61518 0.585786 5.02939C1.17157 4.4436 2.11438 4.4436 4 4.4436H24C25.8856 4.4436 26.8284 4.4436 27.4142 5.02939C28 5.61518 28 6.55799 28 8.4436V11.0752C28 11.5466 28 11.7823 27.8536 11.9287C27.7071 12.0752 27.4714 12.0752 27 12.0752H1C0.528595 12.0752 0.292893 12.0752 0.146447 11.9287C0 11.7823 0 11.5466 0 11.0752V8.4436Z"/><path fill="#FEBF2C" fill-rule="evenodd" d="M0.585786 29.8052C0 29.2194 0 28.2766 0 26.391V16.1278C0 15.6564 0 15.4207 0.146447 15.2743C0.292893 15.1278 0.528595 15.1278 1 15.1278H27C27.4714 15.1278 27.7071 15.1278 27.8536 15.2743C28 15.4207 28 15.6564 28 16.1278V26.391C28 28.2766 28 29.2194 27.4142 29.8052C26.8284 30.391 25.8856 30.391 24 30.391H4C2.11438 30.391 1.17157 30.391 0.585786 29.8052ZM8.40009 21.7594C7.8478 21.7594 7.40009 22.2071 7.40009 22.7594C7.40009 23.3117 7.8478 23.7594 8.40009 23.7594H19.6001C20.1524 23.7594 20.6001 23.3117 20.6001 22.7594C20.6001 22.2071 20.1524 21.7594 19.6001 21.7594H8.40009Z" clip-rule="evenodd"/><path stroke="#fff" stroke-linecap="round" stroke-width="2" d="M7 1.39099L7 5.96994"/><path stroke="#fff" stroke-linecap="round" stroke-width="2" d="M21 1.39099L21 5.96994"/></svg>