<svg width="100" height="100" viewBox="0 0 100 100" fill="none" xmlns="http://www.w3.org/2000/svg">
<path d="M100 50C100 22.3858 77.6142 0 50 0C22.3858 0 0 22.3858 0 50C0 77.6142 22.3858 100 50 100C77.6142 100 100 77.6142 100 50Z" fill="#FEBF2C"/>
<path d="M66.2883 59.137L61.0034 54.734C60.794 54.5974 60.5522 54.5187 60.3026 54.506C60.053 54.4932 59.8044 54.5468 59.5822 54.6612L56.6458 56.6188C56.3371 56.8208 55.9753 56.9263 55.6064 56.9219C54.724 56.8945 53.8472 56.7716 52.9913 56.5552C50.1331 55.8874 47.5182 54.4345 45.4413 52.3603C43.3645 50.2862 41.9082 47.6732 41.2367 44.8158C41.0203 43.9599 40.8973 43.0831 40.8701 42.2006C40.8655 41.8317 40.971 41.4699 41.1731 41.1612L43.1307 38.2279C43.2484 38.0054 43.3035 37.7552 43.2902 37.5038C43.2768 37.2524 43.1955 37.0094 43.0549 36.8006L38.658 31.5158C38.5801 31.3879 38.4706 31.2821 38.3401 31.2088C38.2095 31.1354 38.0623 31.0969 37.9125 31.0969C37.7627 31.0969 37.6155 31.1354 37.485 31.2088C37.3544 31.2821 37.2449 31.3879 37.167 31.5158L34.2489 35.0855C33.8306 35.6827 33.5424 36.3611 33.4031 37.0768C33.2637 37.7925 33.2762 38.5295 33.4398 39.24C33.4622 39.3106 33.4804 39.3824 33.4943 39.4552C33.576 39.803 33.6772 40.146 33.7974 40.4825C34.165 41.577 34.6116 42.6435 35.1337 43.6734C37.2357 47.7146 39.9748 51.391 43.2458 54.5612C46.4141 57.8311 50.0884 60.5692 54.1277 62.6703C55.1576 63.1924 56.224 63.639 57.3186 64.0067C57.6552 64.1263 57.9982 64.2274 58.3458 64.3097C58.4332 64.3258 58.5193 64.348 58.6034 64.3764C59.3078 64.5396 60.0389 64.5507 60.748 64.4091C61.4571 64.2675 62.1278 63.9764 62.7155 63.5552L66.2822 60.637C66.4132 60.5608 66.5221 60.4516 66.5979 60.3204C66.6738 60.1891 66.714 60.0403 66.7146 59.8887C66.7152 59.7371 66.6762 59.588 66.6014 59.4562C66.5266 59.3243 66.4187 59.2143 66.2883 59.137ZM57.5155 51.5612C58.4047 51.0006 59.4456 50.7287 60.4954 50.783C61.5452 50.8372 62.5525 51.2149 63.3792 51.8643L68.6731 56.2855C69.2218 56.7143 69.6651 57.263 69.9691 57.8896C70.273 58.5162 70.4295 59.2041 70.4266 59.9005C70.4237 60.5969 70.2614 61.2834 69.9522 61.9074C69.643 62.5315 69.1951 63.0764 68.6428 63.5006L65.0761 66.4158C64.0167 67.226 62.7863 67.7837 61.4787 68.0463C60.1711 68.3089 58.8207 68.2694 57.5307 67.9309C57.0701 67.8259 56.6165 67.6976 56.1701 67.5461C54.9031 67.1231 53.6685 66.6086 52.4761 66.0067C48.0751 63.7278 44.0701 60.7543 40.6155 57.2006C37.0569 53.7452 34.0792 49.7381 31.7974 45.334C31.1949 44.1387 30.6804 42.9011 30.258 41.6309C30.105 41.1773 29.9756 40.7161 29.8701 40.2491C29.5433 38.962 29.5098 37.6179 29.772 36.3162C30.0343 35.0144 30.5856 33.7881 31.3852 32.7279L34.3034 29.1643C34.7283 28.6124 35.2737 28.165 35.8979 27.8562C36.5221 27.5474 37.2087 27.3853 37.9051 27.3824C38.6015 27.3794 39.2894 27.5357 39.9162 27.8393C40.543 28.1429 41.0921 28.5857 41.5216 29.134L45.9155 34.4219C46.5678 35.2472 46.9473 36.2548 47.0016 37.3054C47.0559 38.3559 46.7823 39.3973 46.2186 40.2855L44.6155 42.6915C44.6654 43.1178 44.7403 43.5407 44.8398 43.9582C45.1979 45.4618 45.8397 46.8832 46.7307 48.1461C47.5279 49.2816 48.5164 50.27 49.6519 51.0673C50.9165 51.9553 52.3389 52.594 53.8428 52.9491C54.2602 53.049 54.6832 53.1239 55.1095 53.1734L57.5155 51.5703V51.5612Z" fill="white"/>
</svg>
