<svg xmlns="http://www.w3.org/2000/svg" width="44" height="45" fill="none" viewBox="0 0 44 45"><rect width="44" height="44" y=".5" fill="#fff" rx="22"/><path fill="#FEBF2C" d="M28.18 32.52C28.021 32.52 27.861 32.482 27.714 32.405L22 29.399L16.285 32.404C15.949 32.583 15.54 32.552 15.232 32.328C14.924 32.104 14.77 31.725 14.834 31.35L15.925 24.989L11.302 20.486C11.03 20.221 10.931 19.824 11.049 19.461C11.166 19.1 11.479 18.835 11.855 18.781L18.246 17.846L21.103 12.057C21.44 11.374 22.559 11.374 22.896 12.057L25.753 17.846L32.144 18.781C32.521 18.836 32.833 19.1 32.951 19.462C33.068 19.824 32.971 20.221 32.697 20.487L28.074 24.99L29.165 31.351C29.229 31.726 29.075 32.105 28.768 32.329C28.593 32.455 28.387 32.52 28.18 32.52ZM14.148 20.466L17.697 23.923C17.933 24.153 18.041 24.485 17.985 24.809L17.147 29.692L21.534 27.385C21.825 27.231 22.174 27.231 22.465 27.385L26.851 29.692L26.014 24.809C25.958 24.485 26.066 24.154 26.302 23.923L29.851 20.466L24.945 19.749C24.62 19.702 24.339 19.497 24.193 19.202L22 14.759L19.807 19.202C19.661 19.497 19.381 19.702 19.055 19.749L14.148 20.466Z"/></svg>