<svg xmlns="http://www.w3.org/2000/svg" width="29" height="29" fill="none" viewBox="0 0 29 29"><path fill="#FEBF2C" fill-rule="evenodd" d="M29 14.391C29 22.123 22.5081 28.391 14.5 28.391C6.49187 28.391 0 22.123 0 14.391C0 6.659 6.49187 0.390991 14.5 0.390991C22.5081 0.390991 29 6.659 29 14.391ZM16.1112 23.7243C16.1112 24.5834 15.3899 25.2799 14.5001 25.2799C13.6103 25.2799 12.889 24.5834 12.889 23.7243C12.889 22.8652 13.6103 22.1688 14.5001 22.1688C15.3899 22.1688 16.1112 22.8652 16.1112 23.7243ZM14.3332 4.05768C11.2035 4.05768 8.66648 6.59473 8.66648 9.72435H10.6665C10.6665 7.6993 12.3081 6.05768 14.3332 6.05768H14.8339C16.7665 6.05768 18.3332 7.62436 18.3332 9.55695V10.2967C18.3332 11.3754 17.637 12.3308 16.6101 12.6613C14.7565 13.2579 13.4998 14.9825 13.4998 16.9298V20.6132H15.4998V16.9298C15.4998 15.851 16.196 14.8956 17.2228 14.5651C19.0764 13.9686 20.3332 12.2439 20.3332 10.2967V9.55695C20.3332 6.51979 17.871 4.05768 14.8339 4.05768H14.3332Z" clip-rule="evenodd"/></svg>