<svg width="44" height="45" viewBox="0 0 44 45" fill="none" xmlns="http://www.w3.org/2000/svg">
<rect y="0.5" width="44" height="44" rx="22" fill="white"/>
<path fill-rule="evenodd" clip-rule="evenodd" d="M29 33.5C30.654 33.5 32 32.154 32 30.5V19.5C32 19.191 31.857 18.9 31.614 18.71L22.614 11.71C22.253 11.43 21.746 11.43 21.386 11.71L12.386 18.71C12.143 18.9 12 19.191 12 19.5V30.5C12 32.154 13.346 33.5 15 33.5H29ZM26 31.5H29C29.552 31.5 30 31.052 30 30.5V19.989L22 13.767L14 19.989V30.5C14 31.052 14.449 31.5 15 31.5H18V22.5C18 21.948 18.448 21.5 19 21.5H25C25.553 21.5 26 21.948 26 22.5V31.5ZM20 31.5V23.5H24V31.5H20Z" fill="#FEBF2C"/>
</svg>
