<svg width="19" height="19" viewBox="0 0 19 19" fill="none" xmlns="http://www.w3.org/2000/svg">
<path d="M0 9.49601C0 9.81075 0.125032 10.1126 0.347591 10.3352C0.570149 10.5577 0.872003 10.6828 1.18675 10.6828H8.11113C8.16475 10.6828 8.21617 10.7041 8.25409 10.742C8.292 10.7799 8.3133 10.8313 8.3133 10.8849V17.8093C8.3133 18.1241 8.43833 18.4259 8.66089 18.6485C8.88345 18.871 9.18531 18.9961 9.50005 18.9961C9.8148 18.9961 10.1167 18.871 10.3392 18.6485C10.5618 18.4259 10.6868 18.1241 10.6868 17.8093V10.8849C10.6868 10.8313 10.7081 10.7799 10.746 10.742C10.7839 10.7041 10.8354 10.6828 10.889 10.6828H17.8134C18.1281 10.6828 18.43 10.5577 18.6525 10.3352C18.8751 10.1126 19.0001 9.81075 19.0001 9.49601C19.0001 9.18126 18.8751 8.87941 18.6525 8.65685C18.43 8.43429 18.1281 8.30926 17.8134 8.30926H10.889C10.8354 8.30926 10.7839 8.28796 10.746 8.25005C10.7081 8.21213 10.6868 8.16071 10.6868 8.10709V1.18675C10.6868 0.872003 10.5618 0.570149 10.3392 0.347591C10.1167 0.125032 9.8148 0 9.50005 0C9.18531 0 8.88345 0.125032 8.66089 0.347591C8.43833 0.570149 8.3133 0.872003 8.3133 1.18675V8.11113C8.3133 8.16475 8.292 8.21617 8.25409 8.25409C8.21617 8.292 8.16475 8.3133 8.11113 8.3133H1.18675C0.872702 8.3133 0.571459 8.43778 0.349017 8.65946C0.126574 8.88115 0.00107 9.18196 0 9.49601Z" fill="white"/>
</svg>
