<svg width="21" height="21" viewBox="0 0 21 21" fill="none" xmlns="http://www.w3.org/2000/svg">
<path d="M6.63906 0.780989H3.55784C2.02423 0.780989 0.780989 2.02423 0.780989 3.55784V6.33468C0.780989 14.0027 6.99717 20.2189 14.6652 20.2189H17.4421C18.9757 20.2189 20.2189 18.9757 20.2189 17.4421V15.5233C20.2189 14.9974 19.9218 14.5167 19.4514 14.2815L16.0971 12.6043C15.3414 12.2264 14.4262 12.6055 14.159 13.4071L13.7456 14.6474C13.4778 15.4508 12.6536 15.929 11.8232 15.7629C8.49964 15.0982 5.90169 12.5003 5.23697 9.17667C5.07089 8.34627 5.54915 7.52215 6.35254 7.25435L7.89179 6.74127C8.58006 6.51184 8.97566 5.79119 8.7997 5.08735L7.98603 1.83267C7.83151 1.21459 7.27616 0.780989 6.63906 0.780989Z" stroke="#8185C6" stroke-width="1.5"/>
</svg>
