<svg width="33" height="32" viewBox="0 0 33 32" fill="none" xmlns="http://www.w3.org/2000/svg">
<path d="M16.5 31.6105C25.6127 31.6105 33 24.5343 33 15.8053C33 7.07626 25.6127 0 16.5 0C7.3873 0 0 7.07626 0 15.8053C0 24.5343 7.3873 31.6105 16.5 31.6105Z" fill="#FEBF2C"/>
<path d="M9.9839 10.9565V9.30983C9.98522 8.87351 10.1667 8.45542 10.4888 8.14689C10.8109 7.83836 11.2474 7.66447 11.7029 7.66321H23.7349C24.1904 7.66447 24.6269 7.83836 24.949 8.14689C25.271 8.45542 25.4526 8.87351 25.4539 9.30983V17.131C25.4518 17.5669 25.2699 17.9842 24.9479 18.2921C24.6259 18.6 24.1899 18.7735 23.7349 18.7748H22.8759V21.6561C22.873 21.817 22.8209 21.9735 22.7262 22.1064C22.6314 22.2393 22.4981 22.3427 22.3427 22.4038C22.1874 22.4649 22.0167 22.4811 21.8518 22.4504C21.6869 22.4197 21.535 22.3433 21.4149 22.2309L20.3839 21.2433H14.1949L10.5849 24.7013C10.4648 24.8138 10.3129 24.8901 10.148 24.9208C9.98312 24.9515 9.81245 24.9353 9.65706 24.8742C9.50168 24.8131 9.36838 24.7097 9.27363 24.5768C9.17888 24.444 9.12683 24.2874 9.1239 24.1265V21.2471H8.2649C7.8094 21.2458 7.37293 21.072 7.05084 20.7634C6.72875 20.4549 6.54722 20.0368 6.5459 19.6005V12.6031C6.54722 12.1667 6.72875 11.7487 7.05084 11.4401C7.37293 11.1316 7.8094 10.9577 8.2649 10.9565H9.9839ZM21.1569 17.9539C21.15 17.8441 21.1676 17.7342 21.2083 17.6314C21.2491 17.5286 21.3121 17.4352 21.3933 17.3575C21.4745 17.2797 21.5719 17.2193 21.6792 17.1803C21.7866 17.1413 21.9013 17.1245 22.0159 17.131H23.7349V9.30983H11.7029V17.131H18.1459C18.2586 17.1282 18.3706 17.1489 18.4742 17.1916C18.5778 17.2342 18.6705 17.2979 18.7459 17.3782L21.1519 19.6829V17.9587L21.1569 17.9539ZM9.9839 12.6031H8.2649V19.6005H9.9839C10.0985 19.5939 10.2132 19.6107 10.3206 19.6498C10.4279 19.6888 10.5253 19.7492 10.6065 19.8269C10.6877 19.9047 10.7507 19.998 10.7915 20.1008C10.8322 20.2036 10.8497 20.3136 10.8429 20.4233V22.1475L13.2459 19.8476C13.3213 19.7673 13.414 19.7037 13.5176 19.661C13.6212 19.6183 13.7332 19.5977 13.8459 19.6005H18.6589L17.7999 18.7777H11.6999C11.2444 18.7764 10.8079 18.6025 10.4858 18.294C10.1637 17.9855 9.98222 17.5674 9.9809 17.131V12.6031H9.9839Z" fill="white"/>
<path d="M10.5 26.8211C12.433 26.8211 14 25.3201 14 23.4685C14 21.6169 12.433 20.1158 10.5 20.1158C8.567 20.1158 7 21.6169 7 23.4685C7 25.3201 8.567 26.8211 10.5 26.8211Z" fill="#DB12EF"/>
</svg>
