<svg xmlns="http://www.w3.org/2000/svg" width="31" height="28" fill="none" viewBox="0 0 31 28"><path fill="#F5F5F5" stroke="#A2A2A2" stroke-linecap="round" d="M30.3361 24.9148C30.4541 25.1226 30.3448 25.4428 30.0015 25.5052L22.6844 26.8356C17.8999 27.7055 12.9977 27.7055 8.21315 26.8356L0.896039 25.5052C0.55277 25.4428 0.4435 25.1226 0.561503 24.9148C1.58586 23.1111 3.34302 21.4978 5.68228 20.2798C8.47069 18.8279 11.9041 18.0335 15.4488 18.0335C18.9935 18.0335 22.4269 18.8279 25.2153 20.2798C27.5546 21.4978 29.3117 23.1111 30.3361 24.9148Z"/><path fill="#F5F5F5" stroke="#A2A2A2" stroke-linecap="round" d="M24.0648 7.96434C24.0648 12.0168 20.2749 15.4167 15.4481 15.4167C10.6214 15.4167 6.83141 12.0168 6.83141 7.96434C6.83141 3.9119 10.6214 0.511993 15.4481 0.511993C20.2749 0.511993 24.0648 3.9119 24.0648 7.96434Z"/></svg>