<svg xmlns="http://www.w3.org/2000/svg" width="137" height="188" fill="none" viewBox="0 0 137 188"><g filter="url(#filter0_d_225_569)"><path fill="#fff" d="M131 0H6C2.68629 0 0 2.68629 0 6V182C0 185.314 2.68629 188 6 188H131C134.314 188 137 185.314 137 182V6C137 2.68629 134.314 0 131 0Z"/><path stroke="#C6C6C6" d="M131 0.5H6C2.96243 0.5 0.5 2.96243 0.5 6V182C0.5 185.038 2.96243 187.5 6 187.5H131C134.038 187.5 136.5 185.038 136.5 182V6C136.5 2.96243 134.038 0.5 131 0.5Z"/></g><defs><filter id="filter0_d_225_569" width="143" height="194" x="-3" y="-2" color-interpolation-filters="sRGB" filterUnits="userSpaceOnUse"><feFlood flood-opacity="0" result="BackgroundImageFix"/><feColorMatrix in="SourceAlpha" result="hardAlpha" type="matrix" values="0 0 0 0 0 0 0 0 0 0 0 0 0 0 0 0 0 0 127 0"/><feOffset dy="1"/><feGaussianBlur stdDeviation="1.5"/><feColorMatrix type="matrix" values="0 0 0 0 0.14902 0 0 0 0 0.188235 0 0 0 0 0.294118 0 0 0 0.102 0"/><feBlend in2="BackgroundImageFix" mode="normal" result="effect1_dropShadow_225_569"/><feBlend in="SourceGraphic" in2="effect1_dropShadow_225_569" mode="normal" result="shape"/></filter></defs></svg>