<svg xmlns="http://www.w3.org/2000/svg" width="44" height="44" fill="none" viewBox="0 0 44 44"><rect width="44" height="44" fill="#C7C7C7" rx="22"/><path fill="#fff" d="M18.01 25C17.458 25 17.005 24.553 17.005 24C17.005 23.447 17.448 23 18 23H18.01C18.562 23 19.01 23.447 19.01 24C19.01 24.553 18.562 25 18.01 25Z"/><path fill="#fff" d="M21.005 24C21.005 24.553 21.458 25 22.01 25C22.562 25 23.01 24.553 23.01 24C23.01 23.447 22.562 23 22.01 23H22C21.448 23 21.005 23.447 21.005 24Z"/><path fill="#fff" d="M26.01 25C25.457 25 25.005 24.553 25.005 24C25.005 23.447 25.447 23 26 23H26.01C26.563 23 27.01 23.447 27.01 24C27.01 24.553 26.563 25 26.01 25Z"/><path fill="#fff" d="M17.005 28C17.005 28.553 17.458 29 18.01 29C18.562 29 19.01 28.553 19.01 28C19.01 27.447 18.562 27 18.01 27H18C17.448 27 17.005 27.447 17.005 28Z"/><path fill="#fff" d="M22.01 29C21.458 29 21.005 28.553 21.005 28C21.005 27.447 21.448 27 22 27H22.01C22.562 27 23.01 27.447 23.01 28C23.01 28.553 22.562 29 22.01 29Z"/><path fill="#fff" d="M25.005 28C25.005 28.553 25.457 29 26.01 29C26.563 29 27.01 28.553 27.01 28C27.01 27.447 26.563 27 26.01 27H26C25.447 27 25.005 27.447 25.005 28Z"/><path fill="#fff" fill-rule="evenodd" d="M32 16C32 14.346 30.654 13 29 13H27V12C27 11.448 26.553 11 26 11C25.447 11 25 11.448 25 12V13H19V12C19 11.448 18.552 11 18 11C17.448 11 17 11.448 17 12V13H15C13.346 13 12 14.346 12 16V30C12 31.654 13.346 33 15 33H29C30.654 33 32 31.654 32 30V16ZM25 16C25 16.552 25.447 17 26 17C26.553 17 27 16.552 27 16V15H29C29.552 15 30 15.449 30 16V19H14V16C14 15.449 14.449 15 15 15H17V16C17 16.552 17.448 17 18 17C18.552 17 19 16.552 19 16V15H25V16ZM14 21H30V30C30 30.552 29.552 31 29 31H15C14.449 31 14 30.552 14 30V21Z" clip-rule="evenodd"/></svg>