<svg xmlns="http://www.w3.org/2000/svg" width="14" height="14" fill="none" viewBox="0 0 14 14"><path fill="#fff" d="M12.5792 10.8868L10.7673 9.3773C10.6955 9.33048 10.6126 9.30351 10.527 9.29913C10.4415 9.29475 10.3562 9.31312 10.2801 9.35237L9.27334 10.0235C9.16751 10.0928 9.04346 10.1289 8.91699 10.1274C8.61447 10.118 8.31385 10.0759 8.02041 10.0017C7.04049 9.77274 6.14399 9.27463 5.43196 8.56352C4.71993 7.85241 4.22067 6.95655 3.99046 5.97693C3.91624 5.68349 3.87409 5.38287 3.86475 5.08034C3.86316 4.95387 3.89933 4.8298 3.96864 4.724L4.63978 3.71833C4.68013 3.64205 4.69903 3.55624 4.69445 3.47007C4.68988 3.3839 4.662 3.30058 4.6138 3.229L3.10634 1.41713C3.07964 1.37327 3.04211 1.33702 2.99735 1.31187C2.95259 1.28672 2.90211 1.27351 2.85076 1.27351C2.79942 1.27351 2.74894 1.28672 2.70418 1.31187C2.65942 1.33702 2.62189 1.37327 2.59519 1.41713L1.59471 2.64097C1.45131 2.84572 1.35252 3.07832 1.30474 3.32368C1.25695 3.56905 1.26124 3.82172 1.31732 4.06532C1.32502 4.08952 1.33127 4.11415 1.33602 4.13909C1.36403 4.25834 1.39872 4.37592 1.43992 4.49128C1.56597 4.86654 1.71909 5.23216 1.89808 5.58526C2.61872 6.97078 3.55781 8.23119 4.67926 9.31808C5.76547 10.4391 7.02519 11.3779 8.41 12.0982C8.7631 12.2772 9.12872 12.4303 9.50398 12.5564C9.61941 12.5974 9.73698 12.6321 9.85617 12.6603C9.88612 12.6658 9.91563 12.6734 9.94448 12.6831C10.186 12.7391 10.4366 12.7429 10.6797 12.6944C10.9228 12.6458 11.1528 12.546 11.3543 12.4016L12.5771 11.4011C12.622 11.375 12.6593 11.3376 12.6853 11.2926C12.7113 11.2476 12.7251 11.1965 12.7253 11.1446C12.7256 11.0926 12.7122 11.0415 12.6865 10.9963C12.6609 10.9511 12.6239 10.9133 12.5792 10.8868ZM9.57151 8.28956C9.87636 8.09733 10.2332 8.00413 10.5931 8.02273C10.9531 8.04133 11.2984 8.17082 11.5818 8.39345L13.3968 9.90923C13.5849 10.0562 13.7369 10.2444 13.8411 10.4592C13.9453 10.674 13.999 10.9098 13.998 11.1486C13.997 11.3874 13.9413 11.6227 13.8353 11.8367C13.7293 12.0506 13.5758 12.2374 13.3864 12.3829L12.1636 13.3823C11.8004 13.6601 11.3786 13.8513 10.9303 13.9413C10.4819 14.0314 10.019 14.0178 9.57671 13.9018C9.41879 13.8658 9.2633 13.8218 9.11023 13.7698C8.67586 13.6248 8.2526 13.4484 7.84379 13.2421C6.33492 12.4608 4.96186 11.4413 3.77748 10.223C2.55743 9.03831 1.53656 7.66452 0.754232 6.15458C0.547693 5.74478 0.371303 5.32048 0.226463 4.88503C0.17403 4.7295 0.129644 4.57138 0.0934815 4.41128C-0.018555 3.97001 -0.0300429 3.5092 0.0598663 3.06289C0.149775 2.61658 0.338785 2.19617 0.612939 1.83269L1.61342 0.610929C1.75908 0.421737 1.94605 0.268341 2.16006 0.162461C2.37407 0.0565801 2.60945 0.00101619 2.84822 1.3808e-05C3.08699 -0.000988574 3.32283 0.052597 3.53772 0.156677C3.75261 0.260757 3.94087 0.412577 4.08811 0.600539L5.59454 2.41345C5.81816 2.6964 5.94828 3.04187 5.9669 3.40204C5.98551 3.76221 5.89169 4.11925 5.69843 4.42375L5.14885 5.24865C5.16596 5.39478 5.19163 5.53979 5.22573 5.68292C5.34849 6.1984 5.56853 6.68571 5.87401 7.1187C6.14734 7.508 6.48622 7.84688 6.87552 8.12021C7.3091 8.42465 7.79675 8.64361 8.31234 8.76538C8.45544 8.79963 8.60045 8.8253 8.74661 8.84226L9.57151 8.29267V8.28956Z"/></svg>