<svg xmlns="http://www.w3.org/2000/svg" width="17" height="14" fill="none" viewBox="0 0 17 14"><path fill="#454F63" d="M6.63186 13.5796L0.384621 7.57169C0.26713 7.50351 0.17002 7.40728 0.102619 7.29234C0.0352174 7.17741 -0.000119587 7.04766 1.34371e-05 6.91571C-0.000805727 6.78019 0.0358424 6.64689 0.106251 6.52949C0.142614 6.46526 0.18835 6.40641 0.242193 6.35477C0.268127 6.3298 0.295824 6.30659 0.325081 6.28529L6.62862 0.2242C6.77823 0.080631 6.98099 0 7.19236 0C7.40374 0 7.60649 0.080631 7.75611 0.2242C7.90542 0.36806 7.98934 0.563002 7.98934 0.766245C7.98934 0.969488 7.90542 1.16443 7.75611 1.30829L2.72028 6.14939H16.2029C16.3077 6.14939 16.4114 6.16925 16.5082 6.20782C16.6049 6.2464 16.6929 6.30294 16.7669 6.3742C16.841 6.44547 16.8996 6.53007 16.9396 6.62316C16.9796 6.71626 17.0001 6.81602 16.9999 6.91674C16.9999 7.11998 16.916 7.31489 16.7666 7.45861C16.6171 7.60232 16.4143 7.68306 16.2029 7.68306H2.74999L7.75611 12.4966C7.90542 12.6404 7.98934 12.8354 7.98934 13.0386C7.98934 13.2419 7.90542 13.4368 7.75611 13.5807C7.68199 13.6518 7.59402 13.7082 7.4972 13.7466C7.40037 13.785 7.29658 13.8047 7.19184 13.8044C6.98163 13.8035 6.78033 13.7227 6.63186 13.5796Z"/></svg>