<svg xmlns="http://www.w3.org/2000/svg" width="26" height="29" fill="none" viewBox="0 0 26 29"><path fill="#fff" d="M5.31489 6.72185C5.6637 2.91421 8.85708 0 12.6807 0C16.5043 0 19.6976 2.91421 20.0464 6.72185L20.5065 11.7445C20.6104 12.8785 20.6624 13.4455 20.7919 13.9937C20.8996 14.45 21.0473 14.896 21.2332 15.3264C21.4566 15.8436 21.7533 16.3295 22.3468 17.3013L24.3226 20.5365C25.1454 21.8839 25.5569 22.5575 25.2703 23.0682C24.9838 23.5789 24.1945 23.5789 22.6158 23.5789H2.74557C1.16687 23.5789 0.377517 23.5789 0.0909924 23.0682C-0.195532 22.5575 0.21588 21.8839 1.03871 20.5365L3.01451 17.3013C3.60802 16.3295 3.90477 15.8436 4.12811 15.3264C4.314 14.896 4.46169 14.45 4.56947 13.9937C4.69896 13.4455 4.7509 12.8785 4.85478 11.7445L5.31489 6.72185Z"/><path stroke="#fff" stroke-linecap="round" stroke-width="2" d="M10.0729 27.4539C10.2267 27.6105 10.5657 27.749 11.0372 27.8477C11.5087 27.9465 12.0865 28 12.6809 28C13.2752 28 13.853 27.9465 14.3245 27.8477C14.7961 27.749 15.135 27.6105 15.2889 27.4539"/></svg>