<svg width="12" height="13" viewBox="0 0 12 13" fill="none" xmlns="http://www.w3.org/2000/svg">
<path d="M4.10447 3.45308L3.67938 3.1837L4.10447 3.45308L5.97374 0.50326L7.84301 3.45308C7.95965 3.63715 8.13288 3.77839 8.33667 3.85558L11.4438 5.03248L9.48109 8.16944C9.38142 8.32873 9.32833 8.51275 9.32784 8.70066L9.31788 12.4963L6.32388 11.3854C6.09798 11.3016 5.8495 11.3016 5.6236 11.3854L2.6296 12.4963L2.61964 8.70066C2.61914 8.51275 2.56606 8.32874 2.46639 8.16944L2.03976 8.43637L2.46639 8.16944L0.503692 5.03248L3.61081 3.85558C3.8146 3.77839 3.98783 3.63715 4.10447 3.45308Z" stroke="#FEBF2C"/>
</svg>
