<svg width="21" height="20" viewBox="0 0 21 20" fill="none" xmlns="http://www.w3.org/2000/svg">
<path d="M0.75 9.99998L0.0536417 9.72144C-0.0178806 9.90025 -0.0178806 10.0997 0.0536417 10.2785L0.75 9.99998ZM19.4167 9.99998L20.113 10.2785C20.1845 10.0997 20.1845 9.90024 20.113 9.72143L19.4167 9.99998ZM10.0833 15.9166C7.02896 15.9166 4.88334 14.3974 3.47413 12.8316C2.769 12.0481 2.25779 11.2621 1.92335 10.6719C1.75655 10.3775 1.63489 10.134 1.556 9.96662C1.51658 9.88302 1.48793 9.81862 1.46974 9.77665C1.46065 9.75566 1.45418 9.7403 1.45029 9.73096C1.44835 9.72629 1.44705 9.72313 1.4464 9.72153C1.44607 9.72072 1.44591 9.72031 1.4459 9.72029C1.4459 9.72029 1.44593 9.72038 1.44601 9.72057C1.44605 9.72066 1.44613 9.72088 1.44615 9.72093C1.44625 9.72117 1.44636 9.72144 0.75 9.99998C0.0536417 10.2785 0.0537694 10.2788 0.0539074 10.2792C0.0539671 10.2793 0.0541158 10.2797 0.0542354 10.28C0.0544749 10.2806 0.0547559 10.2813 0.0550787 10.2821C0.0557243 10.2837 0.0565367 10.2857 0.0575166 10.2881C0.0594764 10.2929 0.0621066 10.2993 0.0654126 10.3072C0.072024 10.3231 0.0813414 10.3452 0.0934078 10.3731C0.117536 10.4287 0.152687 10.5076 0.199208 10.6063C0.292195 10.8035 0.430948 11.0808 0.618313 11.4114C0.992198 12.0712 1.56432 12.9518 2.35918 13.835C3.94996 15.6026 6.471 17.4166 10.0833 17.4166V15.9166ZM0.75 9.99998C1.44636 10.2785 1.44625 10.2788 1.44615 10.279C1.44613 10.2791 1.44605 10.2793 1.44601 10.2794C1.44593 10.2796 1.4459 10.2797 1.4459 10.2797C1.44591 10.2796 1.44607 10.2792 1.4464 10.2784C1.44705 10.2768 1.44835 10.2737 1.45029 10.269C1.45418 10.2597 1.46065 10.2443 1.46974 10.2233C1.48793 10.1813 1.51658 10.1169 1.556 10.0333C1.63489 9.866 1.75655 9.62243 1.92335 9.32807C2.25779 8.73787 2.769 7.95185 3.47413 7.16837C4.88334 5.60257 7.02896 4.08331 10.0833 4.08331V2.58331C6.471 2.58331 3.94996 4.39738 2.35918 6.16492C1.56432 7.04811 0.992198 7.92875 0.618313 8.58855C0.430948 8.9192 0.292195 9.19646 0.199208 9.39371C0.152687 9.49239 0.117536 9.57123 0.0934078 9.62691C0.0813414 9.65475 0.072024 9.67682 0.0654126 9.69271C0.0621066 9.70066 0.0594764 9.70706 0.0575166 9.71186C0.0565367 9.71426 0.0557243 9.71627 0.0550787 9.71786C0.0547559 9.71866 0.0544749 9.71936 0.0542354 9.71996C0.0541158 9.72026 0.0539671 9.72063 0.0539074 9.72077C0.0537694 9.72112 0.0536417 9.72144 0.75 9.99998ZM10.0833 4.08331C13.1377 4.08331 15.2833 5.60258 16.6925 7.16837C17.3977 7.95185 17.9089 8.73787 18.2433 9.32807C18.4101 9.62243 18.5318 9.866 18.6107 10.0333C18.6501 10.1169 18.6787 10.1813 18.6969 10.2233C18.706 10.2443 18.7125 10.2597 18.7164 10.269C18.7183 10.2737 18.7196 10.2768 18.7203 10.2784C18.7206 10.2792 18.7208 10.2797 18.7208 10.2797C18.7208 10.2797 18.7207 10.2796 18.7207 10.2794C18.7206 10.2793 18.7205 10.2791 18.7205 10.279C18.7204 10.2788 18.7203 10.2785 19.4167 9.99998C20.113 9.72143 20.1129 9.72112 20.1128 9.72077C20.1127 9.72062 20.1125 9.72025 20.1124 9.71995C20.1122 9.71936 20.1119 9.71866 20.1116 9.71786C20.1109 9.71626 20.1101 9.71426 20.1091 9.71186C20.1072 9.70705 20.1046 9.70065 20.1013 9.69271C20.0946 9.67682 20.0853 9.65475 20.0733 9.6269C20.0491 9.57122 20.014 9.49239 19.9675 9.3937C19.8745 9.19646 19.7357 8.9192 19.5483 8.58855C19.1745 7.92875 18.6023 7.04811 17.8075 6.16492C16.2167 4.39738 13.6956 2.58331 10.0833 2.58331V4.08331ZM19.4167 9.99998C18.7203 9.72143 18.7204 9.72117 18.7205 9.72092C18.7205 9.72088 18.7206 9.72066 18.7207 9.72056C18.7207 9.72037 18.7208 9.72028 18.7208 9.72029C18.7208 9.72031 18.7206 9.72072 18.7203 9.72152C18.7196 9.72313 18.7183 9.72629 18.7164 9.73096C18.7125 9.7403 18.706 9.75566 18.6969 9.77664C18.6787 9.81862 18.6501 9.88301 18.6107 9.96662C18.5318 10.134 18.4101 10.3775 18.2433 10.6719C17.9089 11.2621 17.3977 12.0481 16.6925 12.8316C15.2833 14.3974 13.1377 15.9166 10.0833 15.9166V17.4166C13.6956 17.4166 16.2167 15.6026 17.8075 13.835C18.6023 12.9519 19.1745 12.0712 19.5483 11.4114C19.7357 11.0808 19.8745 10.8035 19.9675 10.6063C20.014 10.5076 20.0491 10.4287 20.0733 10.3731C20.0853 10.3452 20.0946 10.3231 20.1013 10.3072C20.1046 10.2993 20.1072 10.2929 20.1091 10.2881C20.1101 10.2857 20.1109 10.2837 20.1116 10.2821C20.1119 10.2813 20.1122 10.2806 20.1124 10.28C20.1125 10.2797 20.1127 10.2793 20.1128 10.2792C20.1129 10.2788 20.113 10.2785 19.4167 9.99998ZM10.0833 11.9166C9.02479 11.9166 8.16667 11.0585 8.16667 9.99998H6.66667C6.66667 11.887 8.19636 13.4166 10.0833 13.4166V11.9166ZM12 9.99998C12 11.0585 11.1419 11.9166 10.0833 11.9166V13.4166C11.9703 13.4166 13.5 11.887 13.5 9.99998H12ZM10.0833 8.08331C11.1419 8.08331 12 8.94143 12 9.99998H13.5C13.5 8.11301 11.9703 6.58331 10.0833 6.58331V8.08331ZM10.0833 6.58331C8.19636 6.58331 6.66667 8.11301 6.66667 9.99998H8.16667C8.16667 8.94143 9.02479 8.08331 10.0833 8.08331V6.58331Z" fill="#8185C6"/>
</svg>
