<svg xmlns="http://www.w3.org/2000/svg" width="14" height="19" fill="none" viewBox="0 0 14 19"><path fill="#DB12EF" d="M6.99945 0C10.7849 0 14.1584 3.12698 13.9941 6.5837C13.8297 10.3691 8.89167 18.1044 6.99945 18.1044C5.10722 18.1044 0.169202 10.4513 0.0058378 6.5837C-0.159531 3.12698 3.213 0 6.99945 0ZM6.99945 16.3756L7.7401 15.6349C8.4509 14.7978 9.11056 13.9186 9.71551 13.002C11.0801 11.0978 11.9816 8.90148 12.3484 6.5877C12.4306 4.03701 9.87988 1.65068 6.99945 1.65068C4.11902 1.65068 1.56833 4.032 1.65051 6.5837C2.00309 8.90144 2.90592 11.101 4.28339 12.998C4.86104 13.9347 5.52221 14.8173 6.2588 15.6349C6.4625 15.9215 6.71286 16.1718 6.99945 16.3756ZM6.99945 9.87504C6.42975 9.87504 5.87285 9.70611 5.39917 9.3896C4.92548 9.0731 4.55629 8.62324 4.33828 8.09691C4.12027 7.57058 4.06322 6.99142 4.17437 6.43267C4.28551 5.87392 4.55984 5.36068 4.96268 4.95784C5.36551 4.55501 5.87876 4.28067 6.4375 4.16953C6.99625 4.05839 7.57541 4.11543 8.10174 4.33344C8.62807 4.55146 9.07793 4.92065 9.39444 5.39433C9.71094 5.86802 9.87988 6.42492 9.87988 6.99461C9.87077 7.75572 9.56438 8.48309 9.02615 9.02132C8.48793 9.55954 7.76056 9.86594 6.99945 9.87504ZM6.99945 8.22937C7.24366 8.22937 7.48239 8.15695 7.68544 8.02127C7.8885 7.8856 8.04676 7.69276 8.14021 7.46713C8.23367 7.24151 8.25812 6.99324 8.21048 6.75372C8.16284 6.5142 8.04524 6.29419 7.87255 6.12151C7.69987 5.94882 7.47986 5.83123 7.24034 5.78358C7.00082 5.73594 6.75255 5.76039 6.52693 5.85385C6.3013 5.9473 6.10846 6.10556 5.97279 6.30862C5.83711 6.51167 5.76469 6.7504 5.76469 6.99461C5.77258 7.31961 5.9052 7.62911 6.13507 7.85899C6.36495 8.08886 6.67445 8.22149 6.99945 8.22937Z"/></svg>