<svg width="20" height="20" viewBox="0 0 20 20" fill="none" xmlns="http://www.w3.org/2000/svg">
<path d="M9.16674 15.8334C9.16674 16.2942 9.54007 16.6667 10.0001 16.6667C10.4601 16.6667 10.8334 16.2942 10.8334 15.8334V10.8334H15.8334C16.2942 10.8334 16.6667 10.4601 16.6667 10.0001C16.6667 9.54007 16.2942 9.16674 15.8334 9.16674H10.8334V4.16673C10.8334 3.70673 10.4601 3.3334 10.0001 3.3334C9.54007 3.3334 9.16674 3.70673 9.16674 4.16673V9.16674H4.16673C3.70673 9.16674 3.3334 9.54007 3.3334 10.0001C3.3334 10.4601 3.70673 10.8334 4.16673 10.8334H9.16674V15.8334Z" fill="#0B2B40"/>
</svg>
