<svg xmlns="http://www.w3.org/2000/svg" width="51" height="42" fill="none" viewBox="0 0 51 42"><g filter="url(#filter0_d_272_1603)"><path fill="#fff" d="M37 0H14C7.37258 0 2 5.37258 2 12V26C2 32.6274 7.37258 38 14 38H37C43.6274 38 49 32.6274 49 26V12C49 5.37258 43.6274 0 37 0Z"/></g><mask id="mask0_272_1603" style="mask-type:luminance" width="24" height="24" x="13" y="7" maskUnits="userSpaceOnUse"><path fill="#fff" d="M37 7H13V31H37V7Z"/></mask><g mask="url(#mask0_272_1603)"><path fill="#DB12EF" d="M31.324 25.4758C31.1717 25.9207 30.8842 26.3068 30.5017 26.5802C30.1191 26.8536 29.6607 27.0006 29.1905 27.0006C28.7203 27.0006 28.2619 26.8536 27.8793 26.5802C27.4968 26.3068 27.2093 25.9207 27.057 25.4758H17.757C17.5549 25.4758 17.3611 25.3955 17.2182 25.2526C17.0753 25.1097 16.995 24.9159 16.995 24.7138C16.995 24.5117 17.0753 24.3179 17.2182 24.175C17.3611 24.0321 17.5549 23.9518 17.757 23.9518H27.057C27.2093 23.5069 27.4968 23.1208 27.8793 22.8474C28.2619 22.574 28.7203 22.427 29.1905 22.427C29.6607 22.427 30.1191 22.574 30.5017 22.8474C30.8842 23.1208 31.1717 23.5069 31.324 23.9518H32.238C32.4401 23.9518 32.6339 24.0321 32.7768 24.175C32.9197 24.3179 33 24.5117 33 24.7138C33 24.9159 32.9197 25.1097 32.7768 25.2526C32.6339 25.3955 32.4401 25.4758 32.238 25.4758H31.324ZM28.424 24.7138C28.424 24.8645 28.4687 25.0119 28.5524 25.1372C28.6361 25.2625 28.7552 25.3601 28.8944 25.4178C29.0336 25.4755 29.1868 25.4906 29.3347 25.4612C29.4825 25.4318 29.6182 25.3592 29.7248 25.2526C29.8314 25.1461 29.904 25.0103 29.9334 24.8625C29.9628 24.7147 29.9477 24.5614 29.89 24.4222C29.8323 24.283 29.7346 24.164 29.6093 24.0802C29.484 23.9965 29.3367 23.9518 29.186 23.9518C29.0843 23.9457 28.9825 23.9612 28.8873 23.9973C28.7921 24.0335 28.7056 24.0894 28.6336 24.1614C28.5616 24.2334 28.5056 24.3199 28.4695 24.4151C28.4334 24.5103 28.4179 24.6122 28.424 24.7138ZM27.124 14.0468C26.9717 14.4917 26.6842 14.8778 26.3017 15.1512C25.9191 15.4246 25.4607 15.5716 24.9905 15.5716C24.5203 15.5716 24.0619 15.4246 23.6793 15.1512C23.2968 14.8778 23.0093 14.4917 22.857 14.0468H17.757C17.6558 14.0522 17.5547 14.0362 17.4601 13.9998C17.3656 13.9634 17.2798 13.9074 17.2083 13.8356C17.1369 13.7638 17.0814 13.6777 17.0455 13.5829C17.0096 13.4882 16.9941 13.387 17 13.2858C16.9939 13.1842 17.0094 13.0823 17.0455 12.9871C17.0816 12.8919 17.1376 12.8054 17.2096 12.7334C17.2816 12.6614 17.3681 12.6055 17.4633 12.5693C17.5585 12.5332 17.6603 12.5177 17.762 12.5238H22.862C23.0143 12.079 23.3018 11.6928 23.6843 11.4194C24.0669 11.146 24.5253 10.999 24.9955 10.999C25.4657 10.999 25.9241 11.146 26.3067 11.4194C26.6892 11.6928 26.9767 12.079 27.129 12.5238H32.229C32.3307 12.5177 32.4325 12.5332 32.5277 12.5693C32.6229 12.6055 32.7094 12.6614 32.7814 12.7334C32.8534 12.8054 32.9094 12.8919 32.9455 12.9871C32.9816 13.0823 32.9971 13.1842 32.991 13.2858C32.9971 13.3875 32.9816 13.4893 32.9455 13.5845C32.9094 13.6797 32.8534 13.7662 32.7814 13.8382C32.7094 13.9103 32.6229 13.9662 32.5277 14.0023C32.4325 14.0384 32.3307 14.0539 32.229 14.0478L27.124 14.0468ZM24.224 13.2848C24.224 13.3849 24.2437 13.484 24.282 13.5764C24.3203 13.6689 24.3764 13.7529 24.4472 13.8236C24.5179 13.8944 24.6019 13.9505 24.6944 13.9888C24.7868 14.0271 24.8859 14.0468 24.986 14.0468C25.0861 14.0468 25.1852 14.0271 25.2776 13.9888C25.3701 13.9505 25.4541 13.8944 25.5248 13.8236C25.5956 13.7529 25.6517 13.6689 25.69 13.5764C25.7283 13.484 25.748 13.3849 25.748 13.2848C25.748 13.1847 25.7283 13.0857 25.69 12.9932C25.6517 12.9008 25.5956 12.8168 25.5248 12.746C25.4541 12.6752 25.3701 12.6191 25.2776 12.5808C25.1852 12.5425 25.0861 12.5228 24.986 12.5228C24.8859 12.5228 24.7868 12.5425 24.6944 12.5808C24.6019 12.6191 24.5179 12.6752 24.4472 12.746C24.3764 12.8168 24.3203 12.9008 24.282 12.9932C24.2437 13.0857 24.224 13.1847 24.224 13.2848ZM32.224 19.7608H22.924C22.7717 20.2057 22.4842 20.5918 22.1017 20.8652C21.7191 21.1386 21.2607 21.2856 20.7905 21.2856C20.3203 21.2856 19.8619 21.1386 19.4793 20.8652C19.0968 20.5918 18.8093 20.2057 18.657 19.7608H17.762C17.5599 19.7608 17.3661 19.6805 17.2232 19.5376C17.0803 19.3947 17 19.2009 17 18.9988C17 18.7967 17.0803 18.6029 17.2232 18.46C17.3661 18.3171 17.5599 18.2368 17.762 18.2368H18.676C18.8283 17.792 19.1158 17.4058 19.4983 17.1324C19.8809 16.859 20.3393 16.712 20.8095 16.712C21.2797 16.712 21.7381 16.859 22.1207 17.1324C22.5032 17.4058 22.7907 17.792 22.943 18.2368H32.243C32.4451 18.2368 32.6389 18.3171 32.7818 18.46C32.9247 18.6029 33.005 18.7967 33.005 18.9988C33.005 19.2009 32.9247 19.3947 32.7818 19.5376C32.6389 19.6805 32.4451 19.7608 32.243 19.7608H32.224ZM20.048 18.9998C20.0419 19.1015 20.0574 19.2033 20.0935 19.2985C20.1296 19.3937 20.1856 19.4802 20.2576 19.5522C20.3296 19.6243 20.4161 19.6802 20.5113 19.7163C20.6065 19.7524 20.7083 19.7679 20.81 19.7618C20.9101 19.7618 21.0092 19.7421 21.1016 19.7038C21.1941 19.6655 21.2781 19.6094 21.3488 19.5386C21.4196 19.4679 21.4757 19.3839 21.514 19.2914C21.5523 19.199 21.572 19.0999 21.572 18.9998C21.572 18.8997 21.5523 18.8007 21.514 18.7082C21.4757 18.6158 21.4196 18.5318 21.3488 18.461C21.2781 18.3902 21.1941 18.3341 21.1016 18.2958C21.0092 18.2575 20.9101 18.2378 20.81 18.2378C20.7083 18.2317 20.6065 18.2472 20.5113 18.2833C20.4161 18.3195 20.3296 18.3754 20.2576 18.4474C20.1856 18.5194 20.1296 18.6059 20.0935 18.7011C20.0574 18.7963 20.0419 18.8982 20.048 18.9998Z"/></g><defs><filter id="filter0_d_272_1603" width="51" height="42" x="0" y="0" color-interpolation-filters="sRGB" filterUnits="userSpaceOnUse"><feFlood flood-opacity="0" result="BackgroundImageFix"/><feColorMatrix in="SourceAlpha" result="hardAlpha" type="matrix" values="0 0 0 0 0 0 0 0 0 0 0 0 0 0 0 0 0 0 127 0"/><feOffset dy="2"/><feGaussianBlur stdDeviation="1"/><feColorMatrix type="matrix" values="0 0 0 0 0.270588 0 0 0 0 0.356863 0 0 0 0 0.388235 0 0 0 0.102 0"/><feBlend in2="BackgroundImageFix" mode="normal" result="effect1_dropShadow_272_1603"/><feBlend in="SourceGraphic" in2="effect1_dropShadow_272_1603" mode="normal" result="shape"/></filter></defs></svg>