<svg xmlns="http://www.w3.org/2000/svg" width="14" height="14" fill="none" viewBox="0 0 14 14"><path fill="#fff" d="M6.99993 12.8332C6.8506 12.8332 6.70126 12.7761 6.58752 12.6623L1.92089 7.99569C0.23041 6.27312 0.126577 3.80856 1.6759 2.25924C2.38872 1.54817 3.32496 1.162 4.31954 1.162C4.32187 1.162 4.32362 1.162 4.32595 1.162C5.32286 1.16375 6.26027 1.55342 6.96376 2.26041L6.99993 2.29658L7.03434 2.26216C7.75009 1.54875 8.68574 1.162 9.68032 1.162C9.68265 1.162 9.6844 1.162 9.68674 1.162C10.6842 1.16375 11.6211 1.55342 12.3245 2.25983C13.8733 3.80973 13.77 6.2737 12.083 7.9916L7.41234 12.6623C7.29859 12.7761 7.14926 12.8332 6.99993 12.8332ZM4.31954 2.32866C3.63588 2.32866 2.99247 2.59466 2.5083 3.07765C1.5569 4.02906 1.33873 5.73763 2.75039 7.17495L6.99993 11.4251L11.2541 7.17086C12.6611 5.73704 12.4435 4.02848 11.4991 3.08407L11.4986 3.08348C11.0144 2.59757 10.3698 2.32983 9.68499 2.32866C9.68324 2.32866 9.68149 2.32866 9.68032 2.32866C8.99608 2.32866 8.35325 2.59466 7.86909 3.07765L7.41526 3.53673C7.19593 3.75898 6.80451 3.75898 6.58518 3.53673L6.13602 3.08173C5.65361 2.59757 5.00961 2.32983 4.3242 2.32866C4.32245 2.32866 4.3207 2.32866 4.31954 2.32866Z"/></svg>