<svg xmlns="http://www.w3.org/2000/svg" width="245" height="88" fill="none" viewBox="0 0 245 88"><path fill="#FFB343" d="M233 88H12C10.4236 88.0044 8.86201 87.696 7.40556 87.0929C5.94912 86.4897 4.62681 85.6037 3.51506 84.486C2.39711 83.3743 1.51075 82.0518 0.907395 80.5952C0.30404 79.1385 -0.00434202 77.5767 4.61815e-05 76V18.13H12.0811C13.6718 18.1282 15.1969 17.4955 16.3217 16.3706C17.4465 15.2458 18.0792 13.7208 18.0811 12.13V4.34431e-05H233C234.577 -0.00421241 236.138 0.304262 237.595 0.907613C239.051 1.51096 240.373 2.39721 241.485 3.51504C242.603 4.62668 243.489 5.949 244.092 7.40545C244.696 8.86191 245.004 10.4236 245 12V76C245.004 77.5765 244.696 79.1382 244.092 80.5946C243.489 82.0511 242.603 83.3734 241.485 84.485C240.373 85.6029 239.051 86.4891 237.595 87.0925C236.138 87.6958 234.577 88.0043 233 88Z"/></svg>