<svg width="19" height="19" viewBox="0 0 19 19" fill="none" xmlns="http://www.w3.org/2000/svg">
<path d="M4.19016 14.8097C4.34454 14.9641 4.54721 15.0417 4.74987 15.0417C4.95254 15.0417 5.15521 14.9641 5.30958 14.8097L9.49987 10.6194L13.6902 14.8097C13.8445 14.9641 14.0472 15.0417 14.2499 15.0417C14.4525 15.0417 14.6552 14.9641 14.8096 14.8097C15.1191 14.5002 15.1191 13.9998 14.8096 13.6903L10.6193 9.49999L14.8096 5.3097C15.1191 5.00016 15.1191 4.49983 14.8096 4.19029C14.5 3.88074 13.9997 3.88074 13.6902 4.19029L9.49987 8.38058L5.30958 4.19029C5.00004 3.88074 4.49971 3.88074 4.19016 4.19029C3.88062 4.49983 3.88062 5.00016 4.19016 5.3097L8.38046 9.49999L4.19016 13.6903C3.88062 13.9998 3.88062 14.5002 4.19016 14.8097Z" fill="#7A8699"/>
</svg>
