<svg width="45" height="51" viewBox="0 0 45 51" fill="none" xmlns="http://www.w3.org/2000/svg">
<mask id="mask0_138_639" style="mask-type:luminance" maskUnits="userSpaceOnUse" x="0" y="0" width="45" height="51">
<path d="M27.4785 -1.54289e-05L0 17.5445L17.4662 51L44.9447 33.4555L27.4785 -1.54289e-05Z" fill="white"/>
</mask>
<g mask="url(#mask0_138_639)">
<path d="M27.2652 11.288C28.0691 12.8277 27.6956 14.7305 26.4309 15.538L27.8864 18.3259C30.4157 16.711 31.1628 12.9054 29.5551 9.82591L27.2652 11.288ZM22.6855 14.212C21.8816 12.6723 22.2551 10.7695 23.5198 9.96203L22.0643 7.17407C19.535 8.78896 18.7879 12.5946 20.3956 15.6741L22.6855 14.212ZM23.5198 9.96203C24.7845 9.15455 26.4614 9.7482 27.2652 11.288L29.5551 9.82591C27.9474 6.74641 24.5936 5.55917 22.0643 7.17407L23.5198 9.96203ZM35.9983 28.0157C36.8022 29.5555 36.4287 31.4582 35.164 32.2657L36.6195 35.0537C39.1488 33.4388 39.8959 29.6331 38.2882 26.5537L35.9983 28.0157ZM35.164 32.2657C33.8993 33.0732 32.2225 32.4796 31.4186 30.9398L29.1287 32.4018C30.7364 35.4813 34.0902 36.6686 36.6195 35.0537L35.164 32.2657ZM32.2529 26.6898C33.5176 25.8823 35.1945 26.4759 35.9983 28.0157L38.2882 26.5537C36.6805 23.4742 33.3267 22.2869 30.7974 23.9018L32.2529 26.6898ZM17.0582 32.6741C15.7935 33.4816 14.1167 32.888 13.3128 31.3482L11.0229 32.8102C12.6306 35.8897 15.9844 37.077 18.5137 35.462L17.0582 32.6741ZM13.3128 31.3482C12.5089 29.8084 12.8825 27.9056 14.1472 27.0982L12.6916 24.3102C10.1623 25.9251 9.41522 29.7307 11.0229 32.8102L13.3128 31.3482ZM17.8926 28.4241C18.1279 28.8749 18.2612 29.3524 18.3025 29.824L21.0018 29.7655C20.9186 28.8157 20.6492 27.8561 20.1824 26.962L17.8926 28.4241ZM18.3025 29.824C18.4039 30.982 17.953 32.1028 17.0582 32.6741L18.5137 35.462C20.3083 34.3162 21.2035 32.0687 21.0018 29.7655L18.3025 29.824ZM14.1472 27.0982C15.042 26.5268 16.1451 26.6554 17.0013 27.3315L18.3966 24.7756C16.6939 23.4308 14.4863 23.1644 12.6916 24.3102L14.1472 27.0982ZM17.0013 27.3315C17.3499 27.6068 17.6572 27.9733 17.8926 28.4241L20.1824 26.962C19.7157 26.068 19.0989 25.3302 18.3966 24.7756L17.0013 27.3315ZM18.8619 26.9734L24.042 17.5025L21.7161 15.6627L16.536 25.1336L18.8619 26.9734ZM26.4309 15.538C25.5361 16.1092 24.4329 15.9807 23.5768 15.3046L22.1815 17.8605C23.8841 19.2053 26.0918 19.4717 27.8864 18.3259L26.4309 15.538ZM23.5768 15.3046C23.2282 15.0293 22.9208 14.6628 22.6855 14.212L20.3956 15.6741C20.8624 16.5681 21.4791 17.3059 22.1815 17.8605L23.5768 15.3046ZM19.7911 31.3686L29.7979 31.1428L29.52 27.9953L19.5132 28.221L19.7911 31.3686ZM31.4186 30.9398C31.1832 30.489 31.05 30.0115 31.0086 29.5399L28.3095 29.5983C28.3926 30.5482 28.6619 31.5077 29.1287 32.4018L31.4186 30.9398ZM31.0086 29.5399C30.9072 28.3819 31.3582 27.2611 32.2529 26.6898L30.7974 23.9018C29.0029 25.0476 28.1076 27.2952 28.3095 29.5983L31.0086 29.5399Z" fill="#FEBF2C"/>
</g>
</svg>
