<svg xmlns="http://www.w3.org/2000/svg" width="36" height="36" fill="none" viewBox="0 0 36 36"><path fill="#FEBF2C" fill-rule="evenodd" d="M18 0C8.05888 0 0 8.05888 0 18C0 27.9411 8.05888 36 18 36C27.9411 36 36 27.9411 36 18C36 8.05888 27.9411 0 18 0ZM9.43597 12.184C9 13.0397 9 14.1598 9 16.4V19V24V25.5858C9 26.4767 10.0771 26.9229 10.7071 26.2929L12.7071 24.2929C12.8946 24.1054 13.149 24 13.4142 24H20.6C22.8402 24 23.9603 24 24.816 23.564C25.5686 23.1805 26.1805 22.5686 26.564 21.816C27 20.9603 27 19.8402 27 17.6V16.4C27 14.1598 27 13.0397 26.564 12.184C26.1805 11.4314 25.5686 10.8195 24.816 10.436C23.9603 10 22.8402 10 20.6 10H15.4C13.1598 10 12.0397 10 11.184 10.436C10.4314 10.8195 9.81947 11.4314 9.43597 12.184ZM14 15C14 14.4477 14.4477 14 15 14H21C21.5523 14 22 14.4477 22 15C22 15.5523 21.5523 16 21 16H15C14.4477 16 14 15.5523 14 15ZM14 19C14 18.4477 14.4477 18 15 18H18C18.5523 18 19 18.4477 19 19C19 19.5523 18.5523 20 18 20H15C14.4477 20 14 19.5523 14 19Z" clip-rule="evenodd"/><path fill="#DB12EF" stroke="#DB12EF" d="M4.5 32C4.5 30.067 6.067 28.5 8 28.5C9.933 28.5 11.5 30.067 11.5 32C11.5 33.933 9.933 35.5 8 35.5C6.067 35.5 4.5 33.933 4.5 32Z"/></svg>