<svg xmlns="http://www.w3.org/2000/svg" width="83" height="36" fill="none" viewBox="0 0 83 36"><path fill="#FEBF2C" fill-rule="evenodd" d="M18 0C8.05888 0 0 8.05888 0 18C0 27.9411 8.05888 36 18 36C27.9411 36 36 27.9411 36 18C36 8.05888 27.9411 0 18 0ZM9.43597 12.184C9 13.0397 9 14.1598 9 16.4V19V24V25.5858C9 26.4767 10.0771 26.9229 10.7071 26.2929L12.7071 24.2929C12.8946 24.1054 13.149 24 13.4142 24H20.6C22.8402 24 23.9603 24 24.816 23.564C25.5686 23.1805 26.1805 22.5686 26.564 21.816C27 20.9603 27 19.8402 27 17.6V16.4C27 14.1598 27 13.0397 26.564 12.184C26.1805 11.4314 25.5686 10.8195 24.816 10.436C23.9603 10 22.8402 10 20.6 10H15.4C13.1598 10 12.0397 10 11.184 10.436C10.4314 10.8195 9.81947 11.4314 9.43597 12.184ZM14 15C14 14.4477 14.4477 14 15 14H21C21.5523 14 22 14.4477 22 15C22 15.5523 21.5523 16 21 16H15C14.4477 16 14 15.5523 14 15ZM14 19C14 18.4477 14.4477 18 15 18H18C18.5523 18 19 18.4477 19 19C19 19.5523 18.5523 20 18 20H15C14.4477 20 14 19.5523 14 19Z" clip-rule="evenodd"/><path fill="#DB12EF" stroke="#DB12EF" d="M4.5 32C4.5 30.067 6.067 28.5 8 28.5C9.933 28.5 11.5 30.067 11.5 32C11.5 33.933 9.933 35.5 8 35.5C6.067 35.5 4.5 33.933 4.5 32Z"/><path fill="#FEBF2C" fill-rule="evenodd" d="M47 18C47 8.05888 55.0589 0 65 0C74.9411 0 83 8.05888 83 18C83 27.9411 74.9411 36 65 36C55.0589 36 47 27.9411 47 18ZM58.5 15C58.5 11.4101 61.4101 8.5 65 8.5C68.5899 8.5 71.5 11.4101 71.5 15C71.5 18.0023 69.9302 21.1058 68.4181 23.4117C67.6556 24.5746 66.8938 25.5553 66.3227 26.2453C66.0369 26.5907 65.7983 26.8639 65.6305 27.0515C65.5465 27.1454 65.4802 27.2178 65.4345 27.2673L65.4094 27.2944L65.3818 27.324L65.3676 27.3389L65.3638 27.343L65.3626 27.3442L65.3623 27.3446C65.3622 27.3447 65.3621 27.3448 65 27C64.6379 27.3448 64.6378 27.3447 64.6377 27.3446L64.6374 27.3442L64.6362 27.343L64.6324 27.3389L64.6182 27.324C64.606 27.311 64.5883 27.292 64.5655 27.2673C64.5198 27.2178 64.4535 27.1454 64.3695 27.0515C64.2017 26.8639 63.9631 26.5907 63.6773 26.2453C63.1062 25.5553 62.3444 24.5746 61.5819 23.4117C60.0698 21.1058 58.5 18.0023 58.5 15ZM65 27L65.3621 27.3448L65 27.725L64.6379 27.3448L65 27ZM65 26.2554C65.1482 26.0871 65.336 25.8691 65.5523 25.6078C66.1062 24.9385 66.8444 23.9879 67.5819 22.8633C69.0698 20.5942 70.5 17.6977 70.5 15C70.5 11.9624 68.0376 9.5 65 9.5C61.9624 9.5 59.5 11.9624 59.5 15C59.5 17.6977 60.9302 20.5942 62.4181 22.8633C63.1556 23.9879 63.8938 24.9385 64.4477 25.6078C64.664 25.8691 64.8518 26.0871 65 26.2554ZM65 13.5C64.1716 13.5 63.5 14.1716 63.5 15C63.5 15.8284 64.1716 16.5 65 16.5C65.8284 16.5 66.5 15.8284 66.5 15C66.5 14.1716 65.8284 13.5 65 13.5ZM64.5 15C64.5 14.7239 64.7239 14.5 65 14.5C65.2761 14.5 65.5 14.7239 65.5 15C65.5 15.2761 65.2761 15.5 65 15.5C64.7239 15.5 64.5 15.2761 64.5 15Z" clip-rule="evenodd"/></svg>