<svg width="44" height="44" viewBox="0 0 44 44" fill="none" xmlns="http://www.w3.org/2000/svg">
<rect width="44" height="44" rx="22" fill="#DB12EF"/>
<path fill-rule="evenodd" clip-rule="evenodd" d="M29 33C30.654 33 32 31.654 32 30V19C32 18.691 31.857 18.4 31.614 18.21L22.614 11.21C22.253 10.93 21.746 10.93 21.386 11.21L12.386 18.21C12.143 18.4 12 18.691 12 19V30C12 31.654 13.346 33 15 33H29ZM26 31H29C29.552 31 30 30.552 30 30V19.489L22 13.267L14 19.489V30C14 30.552 14.449 31 15 31H18V22C18 21.448 18.448 21 19 21H25C25.553 21 26 21.448 26 22V31ZM20 31V23H24V31H20Z" fill="white"/>
</svg>
