<svg width="24" height="24" viewBox="0 0 24 24" fill="none" xmlns="http://www.w3.org/2000/svg">
<path fill-rule="evenodd" clip-rule="evenodd" d="M19 23C20.654 23 22 21.654 22 20V9C22 8.691 21.857 8.4 21.614 8.21L12.614 1.21C12.253 0.93 11.746 0.93 11.386 1.21L2.386 8.21C2.143 8.4 2 8.691 2 9V20C2 21.654 3.346 23 5 23H19ZM16 21H19C19.552 21 20 20.552 20 20V9.489L12 3.267L4 9.489V20C4 20.552 4.449 21 5 21H8V12C8 11.448 8.448 11 9 11H15C15.553 11 16 11.448 16 12V21ZM10 21V13H14V21H10Z" fill="white"/>
</svg>
