<svg width="29" height="28" viewBox="0 0 29 28" fill="none" xmlns="http://www.w3.org/2000/svg">
<path fill-rule="evenodd" clip-rule="evenodd" d="M29 14C29 21.732 22.5081 28 14.5 28C6.49187 28 0 21.732 0 14C0 6.26801 6.49187 0 14.5 0C22.5081 0 29 6.26801 29 14ZM16.1112 23.3333C16.1112 24.1924 15.3899 24.8889 14.5001 24.8889C13.6103 24.8889 12.889 24.1924 12.889 23.3333C12.889 22.4742 13.6103 21.7778 14.5001 21.7778C15.3899 21.7778 16.1112 22.4742 16.1112 23.3333ZM14.3332 3.66669C11.2035 3.66669 8.66648 6.20374 8.66648 9.33335H10.6665C10.6665 7.30831 12.3081 5.66669 14.3332 5.66669H14.8339C16.7665 5.66669 18.3332 7.23337 18.3332 9.16596V9.90572C18.3332 10.9844 17.637 11.9399 16.6101 12.2703C14.7565 12.8669 13.4998 14.5915 13.4998 16.5388V20.2222H15.4998V16.5388C15.4998 15.4601 16.196 14.5046 17.2228 14.1742C19.0764 13.5776 20.3332 11.8529 20.3332 9.90572V9.16596C20.3332 6.1288 17.871 3.66669 14.8339 3.66669H14.3332Z" fill="white"/>
</svg>
