<svg xmlns="http://www.w3.org/2000/svg" width="33" height="32" fill="none" viewBox="0 0 33 32"><path fill="#FEBF2C" d="M25 0H8C3.58172 0 0 3.43091 0 7.66316V23.9474C0 28.1796 3.58172 31.6105 8 31.6105H25C29.4183 31.6105 33 28.1796 33 23.9474V7.66316C33 3.43091 29.4183 0 25 0Z"/><path fill="#fff" d="M16.5012 5.50122C20.5352 5.50122 24.1312 8.69388 23.9552 12.2218C23.7802 16.086 18.5182 23.9828 16.5012 23.9828C14.4842 23.9828 9.22222 16.1703 9.04722 12.2218C8.87122 8.69388 12.4662 5.50122 16.5012 5.50122ZM16.5012 22.2184L17.2902 21.4626C18.0459 20.6079 18.7472 19.7103 19.3902 18.7748C20.8451 16.8297 21.8059 14.5862 22.1962 12.2228C22.2842 9.61825 19.5652 7.18233 16.4962 7.18233C13.4272 7.18233 10.7122 9.62017 10.8002 12.2218C11.1754 14.5893 12.1376 16.836 13.6062 18.7738C14.2204 19.7284 14.9232 20.628 15.7062 21.4617C15.9232 21.7541 16.1899 22.0096 16.4952 22.2174L16.5012 22.2184ZM16.5012 15.5821C15.8942 15.5821 15.3009 15.4097 14.7962 15.0867C14.2915 14.7636 13.8981 14.3045 13.6658 13.7673C13.4335 13.2302 13.3728 12.6391 13.4912 12.0688C13.6096 11.4985 13.9019 10.9747 14.3311 10.5636C14.7603 10.1525 15.3072 9.87247 15.9025 9.75903C16.4978 9.6456 17.1149 9.70382 17.6757 9.92632C18.2365 10.1488 18.7158 10.5256 19.053 11.0091C19.3902 11.4925 19.5702 12.0609 19.5702 12.6423C19.5604 13.4191 19.2339 14.1613 18.6604 14.7106C18.087 15.2599 17.3121 15.5727 16.5012 15.5821ZM16.5012 13.902C16.7612 13.9018 17.0153 13.8278 17.2314 13.6893C17.4475 13.5508 17.6159 13.3541 17.7153 13.1239C17.8147 12.8938 17.8407 12.6406 17.7899 12.3964C17.7391 12.1521 17.6139 11.9277 17.4301 11.7516C17.2462 11.5755 17.012 11.4556 16.757 11.4069C16.502 11.3583 16.2377 11.3832 15.9975 11.4784C15.7572 11.5736 15.5518 11.7349 15.4073 11.9419C15.2627 12.1489 15.1854 12.3923 15.1852 12.6414C15.1938 12.9728 15.3351 13.2885 15.5799 13.5229C15.8247 13.7574 16.1542 13.8927 16.5002 13.901L16.5012 13.902Z"/></svg>