<svg width="12" height="13" viewBox="0 0 12 13" fill="none" xmlns="http://www.w3.org/2000/svg">
<path d="M4.10447 3.45308L3.67938 3.1837L4.10447 3.45307L5.97374 0.50326L7.843 3.45307C7.95964 3.63715 8.13288 3.77839 8.33666 3.85558L11.4438 5.03247L9.48108 8.16943C9.38141 8.32873 9.32833 8.51275 9.32784 8.70065L9.31787 12.4963L6.32387 11.3854C6.09797 11.3015 5.8495 11.3015 5.62359 11.3854L2.6296 12.4963L2.61963 8.70065C2.61914 8.51275 2.56606 8.32873 2.46639 8.16943L2.03976 8.43636L2.46639 8.16943L0.503692 5.03247L3.61081 3.85558C3.81459 3.77839 3.98783 3.63714 4.10447 3.45308Z" stroke="#FEBF2C"/>
</svg>
