<svg xmlns="http://www.w3.org/2000/svg" width="36" height="36" fill="none" viewBox="0 0 36 36"><path fill="#FEBF2C" fill-rule="evenodd" d="M0 18C0 8.05888 8.05888 0 18 0C27.9411 0 36 8.05888 36 18C36 27.9411 27.9411 36 18 36C8.05888 36 0 27.9411 0 18ZM11.5 15C11.5 11.4101 14.4101 8.5 18 8.5C21.5899 8.5 24.5 11.4101 24.5 15C24.5 18.0023 22.9302 21.1058 21.4181 23.4117C20.6556 24.5746 19.8938 25.5553 19.3227 26.2453C19.0369 26.5907 18.7983 26.8639 18.6305 27.0515C18.5465 27.1454 18.4802 27.2178 18.4345 27.2673L18.4094 27.2944L18.3818 27.324L18.3676 27.3389L18.3638 27.343L18.3626 27.3442L18.3623 27.3446C18.3622 27.3447 18.3621 27.3448 18 27C17.6379 27.3448 17.6378 27.3447 17.6377 27.3446L17.6374 27.3442L17.6362 27.343L17.6324 27.3389L17.6182 27.324C17.606 27.311 17.5883 27.292 17.5655 27.2673C17.5198 27.2178 17.4535 27.1454 17.3695 27.0515C17.2017 26.8639 16.9631 26.5907 16.6773 26.2453C16.1062 25.5553 15.3444 24.5746 14.5819 23.4117C13.0698 21.1058 11.5 18.0023 11.5 15ZM18 27L18.3621 27.3448L18 27.725L17.6379 27.3448L18 27ZM18 26.2554C18.1482 26.0871 18.336 25.8691 18.5523 25.6078C19.1062 24.9385 19.8444 23.9879 20.5819 22.8633C22.0698 20.5942 23.5 17.6977 23.5 15C23.5 11.9624 21.0376 9.5 18 9.5C14.9624 9.5 12.5 11.9624 12.5 15C12.5 17.6977 13.9302 20.5942 15.4181 22.8633C16.1556 23.9879 16.8938 24.9385 17.4477 25.6078C17.664 25.8691 17.8518 26.0871 18 26.2554ZM18 13.5C17.1716 13.5 16.5 14.1716 16.5 15C16.5 15.8284 17.1716 16.5 18 16.5C18.8284 16.5 19.5 15.8284 19.5 15C19.5 14.1716 18.8284 13.5 18 13.5ZM17.5 15C17.5 14.7239 17.7239 14.5 18 14.5C18.2761 14.5 18.5 14.7239 18.5 15C18.5 15.2761 18.2761 15.5 18 15.5C17.7239 15.5 17.5 15.2761 17.5 15Z" clip-rule="evenodd"/></svg>