<svg xmlns="http://www.w3.org/2000/svg" width="17" height="17" fill="none" viewBox="0 0 17 17"><path fill="#7A8699" d="M4.95817 7.08331C4.95817 9.03619 6.54696 10.625 8.49984 10.625C10.4527 10.625 12.0415 9.03619 12.0415 7.08331C12.0415 6.69231 11.7249 6.37498 11.3332 6.37498C10.9415 6.37498 10.6248 6.69231 10.6248 7.08331C10.6248 8.2549 9.67142 9.20831 8.49984 9.20831C7.32825 9.20831 6.37484 8.2549 6.37484 7.08331C6.37484 6.69231 6.0575 6.37498 5.6665 6.37498C5.2755 6.37498 4.95817 6.69231 4.95817 7.08331Z"/><path fill="#7A8699" fill-rule="evenodd" d="M15.5832 14.1666C15.5832 15.3382 14.6298 16.2916 13.4582 16.2916H3.5415C2.36992 16.2916 1.4165 15.3382 1.4165 14.1666V4.24998C1.4165 4.12353 1.44969 4.00479 1.50782 3.902C1.52285 3.87536 1.53965 3.84963 1.55817 3.82498L3.68317 0.991646C3.81705 0.813146 4.02671 0.708313 4.24984 0.708313H12.7498C12.9723 0.708313 13.1826 0.813146 13.3165 0.991646L15.4343 3.81533C15.5276 3.93535 15.5832 4.0862 15.5832 4.24998V14.1666ZM2.83317 14.1666V4.95831H14.1665V14.1666C14.1665 14.5576 13.8492 14.875 13.4582 14.875H3.5415C3.15121 14.875 2.83317 14.5576 2.83317 14.1666ZM13.4583 3.54165H3.5414L4.604 2.12498H12.3957L13.4583 3.54165Z" clip-rule="evenodd"/></svg>