<svg xmlns="http://www.w3.org/2000/svg" width="17" height="21" fill="none" viewBox="0 0 17 21"><path fill="#78849E" d="M6.44174 9.55278C6.51963 9.8229 6.55153 10.1042 6.53612 10.3849C6.52803 10.6644 6.49646 10.9428 6.44174 11.217L11.4497 14.8703C12.0507 14.3406 12.8224 14.0452 13.6234 14.0382C14.2606 14.0519 14.8795 14.2535 15.4025 14.6175C15.9256 14.9815 16.3296 15.4919 16.5639 16.0845C16.7982 16.6772 16.8523 17.3258 16.7195 17.9491C16.5868 18.5724 16.273 19.1426 15.8175 19.5883C15.362 20.034 14.7851 20.3354 14.159 20.4546C13.533 20.5738 12.8857 20.5056 12.2983 20.2585C11.7108 20.0114 11.2094 19.5965 10.8568 19.0656C10.5042 18.5347 10.3162 17.9116 10.3162 17.2743C10.3243 16.9948 10.3559 16.7164 10.4106 16.4422L5.4026 12.7889C4.93775 13.2078 4.36143 13.483 3.74342 13.5811C3.12541 13.6792 2.49222 13.596 1.92052 13.3416C1.34882 13.0872 0.863133 12.6725 0.522273 12.1477C0.181414 11.623 0 11.0107 0 10.3849C0 9.75916 0.181414 9.14684 0.522273 8.62208C0.863133 8.09732 1.34882 7.68264 1.92052 7.42824C2.49222 7.17385 3.12541 7.09065 3.74342 7.18873C4.36143 7.28681 4.93775 7.56196 5.4026 7.98086L10.4106 4.32761C10.3582 4.0373 10.3267 3.74361 10.3162 3.4488C10.2918 2.68047 10.533 1.9272 10.9991 1.31591C11.4652 0.704616 12.1278 0.272653 12.8751 0.09279C13.6225 -0.0870729 14.4091 -0.00384297 15.1023 0.328459C15.7954 0.660761 16.3529 1.22182 16.6808 1.91713C17.0086 2.61244 17.0868 3.3995 16.9021 4.14571C16.7175 4.89192 16.2812 5.55169 15.667 6.01385C15.0527 6.47602 14.2979 6.71235 13.5297 6.68302C12.7616 6.65369 12.027 6.3605 11.4497 5.85284L6.44174 9.55278ZM13.6214 4.84008C13.8942 4.83349 14.1591 4.74657 14.3828 4.59019C14.6064 4.43381 14.779 4.21492 14.8789 3.96093C14.9788 3.70694 15.0015 3.42913 14.9443 3.16228C14.887 2.89543 14.7523 2.65139 14.5571 2.46072C14.3618 2.27005 14.1146 2.14122 13.8465 2.09035C13.5783 2.03948 13.3011 2.06884 13.0496 2.17475C12.7981 2.28066 12.5834 2.45841 12.4324 2.68575C12.2814 2.9131 12.2008 3.17994 12.2007 3.45286C12.1992 3.63828 12.2352 3.82209 12.3065 3.99326C12.3778 4.16443 12.483 4.31944 12.6157 4.44898C12.7483 4.57853 12.9058 4.67994 13.0786 4.74715C13.2514 4.81435 13.4361 4.84596 13.6214 4.84008ZM13.6214 18.7092C13.8942 18.7027 14.1591 18.6157 14.3828 18.4594C14.6064 18.303 14.779 18.0841 14.8789 17.8301C14.9788 17.5761 15.0015 17.2983 14.9443 17.0314C14.887 16.7646 14.7523 16.5206 14.5571 16.3299C14.3618 16.1392 14.1146 16.0104 13.8465 15.9595C13.5783 15.9086 13.3011 15.938 13.0496 16.0439C12.7981 16.1498 12.5834 16.3276 12.4324 16.5549C12.2814 16.7823 12.2008 17.0491 12.2007 17.322C12.1992 17.5074 12.2352 17.6913 12.3065 17.8624C12.3778 18.0336 12.483 18.1886 12.6157 18.3181C12.7483 18.4477 12.9058 18.5491 13.0786 18.6163C13.2514 18.6835 13.4361 18.7151 13.6214 18.7092ZM3.22891 11.7752C3.50175 11.7686 3.76659 11.6817 3.99027 11.5253C4.21395 11.3689 4.38653 11.15 4.48641 10.896C4.58629 10.642 4.60903 10.3642 4.55178 10.0974C4.49453 9.83052 4.35984 9.58648 4.16457 9.39581C3.9693 9.20514 3.72212 9.07631 3.45398 9.02544C3.18583 8.97457 2.90865 9.00393 2.65711 9.10984C2.40557 9.21575 2.19087 9.3935 2.03987 9.62085C1.88887 9.84819 1.80828 10.115 1.8082 10.3879C1.80674 10.5734 1.84275 10.7572 1.91405 10.9284C1.98536 11.0995 2.0905 11.2545 2.22318 11.3841C2.35585 11.5136 2.51332 11.615 2.68614 11.6822C2.85896 11.7494 3.04358 11.7811 3.22891 11.7752Z"/></svg>