<svg xmlns="http://www.w3.org/2000/svg" width="26" height="85" fill="none" viewBox="0 0 26 85"><rect width="2" height="61" fill="#F9C0FF" transform="matrix(-1 0 0 1 14 24)"/><path fill="#fff" d="M12.6279 21C18.4382 21 23.1483 16.7467 23.1483 11.5C23.1483 6.25329 18.4382 2 12.6279 2C6.81759 2 2.10742 6.25329 2.10742 11.5C2.10742 16.7467 6.81759 21 12.6279 21Z"/><path stroke="#fff" stroke-miterlimit="10" stroke-width="2" d="M12.6279 22C19.0498 22 24.2557 17.299 24.2557 11.5C24.2557 5.70101 19.0498 1 12.6279 1C6.20597 1 1 5.70101 1 11.5C1 17.299 6.20597 22 12.6279 22Z"/><g opacity=".999"><path fill="#DB12EF" d="M12.7091 15.7919C15.9574 15.7919 18.5906 13.4141 18.5906 10.4809C18.5906 7.54774 15.9574 5.16992 12.7091 5.16992C9.46087 5.16992 6.82764 7.54774 6.82764 10.4809C6.82764 13.4141 9.46087 15.7919 12.7091 15.7919Z"/><path stroke="#8D7EA8" stroke-miterlimit="10" stroke-opacity=".18" stroke-width="4" d="M12.7091 17.7919C17.1806 17.7919 20.8054 14.5187 20.8054 10.4809C20.8054 6.44317 17.1806 3.16992 12.7091 3.16992C8.23764 3.16992 4.61279 6.44317 4.61279 10.4809C4.61279 14.5187 8.23764 17.7919 12.7091 17.7919Z"/></g></svg>