<svg xmlns="http://www.w3.org/2000/svg" width="8" height="10" fill="none" viewBox="0 0 8 10"><path fill="#DB12EF" d="M3.85855 0.000777699C4.85026 -0.0193062 5.8103 0.350291 6.53253 1.0302C7.25475 1.71012 7.68156 2.64613 7.72131 3.63725C7.63185 5.72756 4.90476 9.99975 3.85855 9.99975C2.81234 9.99975 0.0863069 5.77282 0 3.63725C0.0397406 2.64687 0.465966 1.7115 1.18728 1.0317C1.90859 0.351904 2.86756 -0.0181908 3.85855 0.000777699ZM3.85855 9.04511L4.26798 8.63568C4.66033 8.17352 5.02446 7.68812 5.3584 7.18214C6.11262 6.12987 6.61071 4.91601 6.81298 3.63725C6.76597 2.88988 6.43268 2.1894 5.88242 1.68148C5.33216 1.17357 4.60728 0.897306 3.85855 0.910158C3.11 0.89758 2.38539 1.17396 1.83536 1.68185C1.28532 2.18974 0.952177 2.89006 0.90517 3.63725C1.0994 4.91807 1.59784 6.13367 2.35871 7.18214C2.67824 7.69707 3.04354 8.18214 3.45017 8.63147C3.56276 8.78991 3.70116 8.92831 3.8596 9.0409L3.85855 9.04511ZM3.85855 5.45495C3.5441 5.45475 3.23676 5.36132 2.97539 5.18649C2.71402 5.01166 2.51034 4.76327 2.3901 4.47271C2.26986 4.18215 2.23845 3.86247 2.29985 3.55407C2.36125 3.24567 2.51269 2.96239 2.73505 2.74003C2.9574 2.51768 3.24068 2.36624 3.54908 2.30484C3.85748 2.24344 4.17717 2.27485 4.46772 2.39509C4.75828 2.51533 5.00667 2.719 5.1815 2.98038C5.35633 3.24175 5.44976 3.54908 5.44997 3.86354C5.44505 4.28408 5.2758 4.68601 4.97841 4.9834C4.68102 5.28079 4.27909 5.45004 3.85855 5.45495ZM3.85855 4.54557C3.99344 4.54557 4.12531 4.50557 4.23747 4.43063C4.34963 4.35569 4.43705 4.24917 4.48867 4.12454C4.54029 3.99992 4.5538 3.86278 4.52748 3.73048C4.50116 3.59818 4.43621 3.47665 4.34082 3.38127C4.24544 3.28588 4.12391 3.22092 3.99161 3.19461C3.85931 3.16829 3.72217 3.1818 3.59755 3.23342C3.47292 3.28504 3.3664 3.37246 3.29146 3.48462C3.21652 3.59678 3.17652 3.72864 3.17652 3.86354C3.18079 4.04308 3.25402 4.21409 3.38101 4.34108C3.508 4.46807 3.67901 4.5413 3.85855 4.54557Z"/></svg>