<svg width="18" height="17" viewBox="0 0 18 17" fill="none" xmlns="http://www.w3.org/2000/svg">
<mask id="mask0_273_2650" style="mask-type:luminance" maskUnits="userSpaceOnUse" x="-3" y="-4" width="24" height="25">
<path d="M21 -3.99951H-3V20.0005H21V-3.99951Z" fill="white"/>
</mask>
<g mask="url(#mask0_273_2650)">
<path d="M9.286 1.43273C9.72125 0.970857 10.2481 0.604926 10.8329 0.358343C11.4177 0.111761 12.0475 -0.0100426 12.682 0.000724922C15.668 0.000724922 18 2.41473 18 5.85073C18 7.89573 16.977 9.61473 15.136 11.4507C14.727 11.8597 13.5 12.9647 13.459 13.0057C13.295 13.1697 13.091 13.3327 12.886 13.5377C12.641 13.7377 12.354 13.9877 12.109 14.1927C11.536 14.6837 10.923 15.1337 10.309 15.5837C10.1103 15.7237 9.91905 15.8739 9.736 16.0337C9.65108 16.0834 9.56926 16.1381 9.491 16.1977C9.35427 16.2972 9.18956 16.3507 9.0205 16.3507C8.85144 16.3507 8.68673 16.2972 8.55 16.1977C8.47174 16.1381 8.38992 16.0834 8.305 16.0337C8.141 15.9107 7.937 15.7477 7.732 15.5837C7.118 15.1337 6.505 14.6427 5.932 14.1927C5.646 13.9477 5.4 13.7427 5.155 13.5377C4.955 13.3737 4.787 13.1697 4.582 13.0057C4.5 12.9647 3.273 11.8607 2.864 11.4507C0.982 9.61473 0 7.90073 0 5.85073C0 2.41473 2.332 0.000724922 5.318 0.000724922C5.95321 -0.0106025 6.58378 0.110929 7.16928 0.357529C7.75479 0.604128 8.2823 0.970354 8.718 1.43273C8.82189 1.51777 8.91643 1.61365 9 1.71872C9.08483 1.61344 9.18071 1.51755 9.286 1.43273ZM9.327 14.3187C9.9 13.8687 10.513 13.4187 11.045 12.9687C11.308 12.7711 11.5542 12.552 11.781 12.3137C11.9676 12.1604 12.1452 11.9965 12.313 11.8227C12.395 11.7407 13.622 10.6367 13.99 10.2677C15.545 8.71272 16.363 7.36772 16.363 5.84972C16.363 3.31372 14.727 1.63573 12.681 1.63573C11.8367 1.64257 11.0288 1.98045 10.431 2.57673C10.2295 2.77428 10.051 2.99401 9.899 3.23172C9.817 3.35472 9.776 3.47673 9.735 3.51773C9.66973 3.66395 9.5635 3.78813 9.42917 3.87528C9.29483 3.96243 9.13813 4.0088 8.978 4.0088C8.81787 4.0088 8.66117 3.96243 8.52683 3.87528C8.3925 3.78813 8.28627 3.66395 8.221 3.51773C8.17132 3.41962 8.11658 3.32415 8.057 3.23172C7.90249 2.9958 7.72423 2.77633 7.525 2.57673C7.23944 2.27881 6.89648 2.04184 6.51682 1.88011C6.13716 1.71838 5.72867 1.63525 5.316 1.63573C3.271 1.63573 1.634 3.31272 1.634 5.84972C1.634 7.36372 2.452 8.71372 4.007 10.3087C4.375 10.6767 5.607 11.7817 5.684 11.8637C5.85176 12.0375 6.02939 12.2014 6.216 12.3547C6.461 12.5547 6.707 12.7637 6.952 13.0097C7.484 13.4597 8.097 13.9097 8.67 14.3597C8.793 14.4417 8.87 14.5237 8.997 14.6047C9.0859 14.4886 9.19707 14.3914 9.324 14.3187H9.327Z" fill="#78849E"/>
</g>
</svg>
