<svg xmlns="http://www.w3.org/2000/svg" width="390" height="81" fill="none" viewBox="0 0 390 81"><path fill="#fff" d="M0 0.244071C0 0.244071 18.923 24.5575 48.0319 24.0095C67.4271 23.6458 85.1487 -2.80099 111.001 0.244071C128.457 2.30091 147.648 31.2153 167.142 30.8006C187.053 30.3761 207.906 1.37249 238.227 0.244071C268.547 -0.884348 294.676 36.6868 318.916 37.5887C360.56 39.1397 389.311 7.07634 390 10.4322V81H0V0.244071Z" opacity=".2"/><path fill="#fff" d="M0 58.7758C0 58.7758 13.8194 14.8352 62.8635 16.2048C101.927 17.2969 109.837 45.6162 132.559 45.6779C151.275 45.7279 172.631 14.992 192.116 16.2048C211.427 17.4038 228.927 48.7112 247.832 48.9524C266.251 49.1867 281.777 14.0509 311.231 12.9303C340.686 11.8097 349.38 36.6378 362.22 45.6779C382.189 59.7356 390 62.0503 390 62.0503V80.9981H0V58.7758Z" opacity=".4"/><path fill="#fff" d="M390 34.3308C370.788 34.3308 367.954 63.805 307.389 62.0471C290.963 61.5717 256.188 19.8506 238.227 18.4937C217.488 16.9251 196.05 50.3492 174.827 50.1688C153.144 49.9875 133.608 20.3712 113.35 18.4937C91.1334 16.4349 68.1693 57.8835 49.9513 54.1276C11.5277 46.2101 0 22.4525 0 22.4525V80.9969H390V34.3308Z" opacity=".6"/><path fill="#fff" d="M390 67.9826C387.632 70.1022 371.708 73.1179 340.049 65.7336C325.258 62.2827 312.133 45.8564 293.941 45.4878C275.824 45.1202 252.5 64.0052 232.465 63.4827C203.647 62.7337 192.704 45.5741 172.908 45.4878C153.845 45.4035 138.901 58.1543 121.036 58.9847C94.3145 60.2269 71.0475 43.329 49.9513 43.2378C14.3457 43.0849 0 65.7336 0 65.7336V80.9982H390V67.9826Z"/></svg>