<svg width="21" height="27" viewBox="0 0 21 27" fill="none" xmlns="http://www.w3.org/2000/svg">
<path fill-rule="evenodd" clip-rule="evenodd" d="M3.47908 1.76566L14.2186 0.355047C17.3774 -0.0598474 18.9568 -0.267294 19.9784 0.628917C21 1.52513 21 3.11807 21 6.30395V12.2558H11.3413L15.7224 7.6784L14.2776 6.29551L8.27757 12.5644L7.61578 13.2558L8.27757 13.9472L14.2776 20.2161L15.7224 18.8332L11.3413 14.2558H21V20.2077C21 23.3935 21 24.9865 19.9784 25.8827C18.9568 26.7789 17.3774 26.5715 14.2186 26.1566L3.47909 24.746C1.82172 24.5283 0.993036 24.4194 0.496518 23.8534C0 23.2874 0 22.4516 0 20.78V5.73159C0 4.05999 0 3.22419 0.496518 2.65819C0.993036 2.09219 1.82172 1.98335 3.47908 1.76566Z" fill="#FF0909"/>
</svg>
