<svg width="25" height="27" viewBox="0 0 25 27" fill="none" xmlns="http://www.w3.org/2000/svg">
<path d="M23.8473 24.3713C23.9416 24.5822 23.8225 24.869 23.5187 24.9375L20.8793 25.5326C15.1586 26.8224 9.22249 26.8224 3.50179 25.5326L0.862395 24.9375C0.558612 24.869 0.439463 24.5822 0.53382 24.3713C1.33871 22.5723 2.73326 20.9782 4.58251 19.7842C6.75725 18.3801 9.43159 17.6137 12.1905 17.6137C14.9495 17.6137 17.6238 18.3801 19.7986 19.7842C21.6478 20.9782 23.0424 22.5724 23.8473 24.3713Z" fill="#FEBF2C" stroke="#FEBF2C" stroke-linecap="round"/>
<path d="M18.8805 7.77894C18.8805 11.8367 15.8487 15.0578 12.1899 15.0578C8.53112 15.0578 5.49936 11.8367 5.49936 7.77894C5.49936 3.72118 8.53112 0.500075 12.1899 0.500075C15.8487 0.500075 18.8805 3.72118 18.8805 7.77894Z" fill="#FEBF2C" stroke="#FEBF2C" stroke-linecap="round"/>
</svg>
