<svg xmlns="http://www.w3.org/2000/svg" width="30" height="28" fill="none" viewBox="0 0 30 28"><path stroke="#fff" d="M26.25 5.59998L23.7665 7.33844C23.4303 7.57376 23.0299 7.69998 22.6196 7.69998H16.9475C16.2102 7.69998 15.5327 8.10562 15.1845 8.75553L15.054 8.99926C14.5906 9.86426 14.8232 10.9377 15.6031 11.5332L19.7788 14.722C21.4653 16.0098 22.3461 18.0927 22.0953 20.1999L21.8864 21.9546C21.7959 22.7142 21.597 23.457 21.2956 24.1602L20.25 26.6"/><path stroke="#fff" d="M0.75 11.9L6.98114 10.9307C8.33775 10.7197 9.49875 11.907 9.25741 13.2585L8.79061 15.8726C8.47186 17.6576 9.39367 19.4337 11.0368 20.2005L11.9698 20.6359C13.2887 21.2514 13.9755 22.7248 13.5989 24.1306L12.75 27.3"/><path stroke="#fff" d="M29.5 14C29.5 21.4239 23.0412 27.5 15 27.5C6.95882 27.5 0.5 21.4239 0.5 14C0.5 6.57609 6.95882 0.5 15 0.5C23.0412 0.5 29.5 6.57609 29.5 14Z"/></svg>