<svg xmlns="http://www.w3.org/2000/svg" width="352" height="42" fill="none" viewBox="0 0 352 42"><mask id="mask0_222_1090" style="mask-type:luminance" width="352" height="42" x="0" y="0" maskUnits="userSpaceOnUse"><path fill="#fff" d="M352 0H0V41.7941H352V0Z"/></mask><g mask="url(#mask0_222_1090)"><path fill="#F7F7F8" d="M311.289 0H241.562C229.573 0 219.854 9.35592 219.854 20.897C219.854 32.4382 229.573 41.7941 241.562 41.7941H311.289C323.278 41.7941 332.997 32.4382 332.997 20.897C332.997 9.35592 323.278 0 311.289 0Z"/><path fill="#000" d="M245.074 15.229C245.014 14.7253 244.772 14.3342 244.348 14.0557C243.924 13.7773 243.403 13.6381 242.787 13.6381C242.336 13.6381 241.941 13.711 241.603 13.8569C241.269 14.0027 241.007 14.2032 240.818 14.4584C240.632 14.7136 240.54 15.0037 240.54 15.3285C240.54 15.6003 240.604 15.8339 240.733 16.0295C240.866 16.2217 241.035 16.3824 241.241 16.5117C241.446 16.6377 241.661 16.7421 241.887 16.8249C242.112 16.9045 242.319 16.9691 242.508 17.0188L243.542 17.2972C243.807 17.3668 244.102 17.4629 244.427 17.5856C244.755 17.7082 245.069 17.8756 245.367 18.0877C245.669 18.2965 245.917 18.565 246.113 18.8931C246.308 19.2212 246.406 19.6239 246.406 20.1012C246.406 20.6514 246.262 21.1485 245.973 21.5927C245.688 22.0368 245.271 22.3898 244.721 22.6516C244.174 22.9135 243.509 23.0444 242.727 23.0444C241.998 23.0444 241.366 22.9267 240.833 22.6914C240.303 22.4561 239.885 22.1279 239.58 21.707C239.278 21.2861 239.108 20.7972 239.068 20.2404H240.341C240.374 20.6249 240.503 20.9431 240.728 21.1949C240.957 21.4435 241.245 21.6291 241.593 21.7518C241.945 21.8711 242.323 21.9307 242.727 21.9307C243.198 21.9307 243.62 21.8545 243.995 21.702C244.369 21.5463 244.666 21.3308 244.885 21.0557C245.103 20.7773 245.213 20.4525 245.213 20.0813C245.213 19.7432 245.118 19.4681 244.929 19.256C244.741 19.0439 244.492 18.8716 244.184 18.739C243.875 18.6064 243.542 18.4904 243.184 18.391L241.932 18.033C241.136 17.8043 240.506 17.4779 240.042 17.0536C239.578 16.6294 239.346 16.0742 239.346 15.3881C239.346 14.8181 239.5 14.3209 239.809 13.8967C240.12 13.4691 240.538 13.1377 241.062 12.9023C241.589 12.6637 242.177 12.5444 242.826 12.5444C243.483 12.5444 244.066 12.662 244.576 12.8974C245.087 13.1294 245.491 13.4476 245.79 13.8519C246.091 14.2563 246.25 14.7153 246.267 15.229H245.074ZM248.433 22.8654V12.6836H249.666V17.7347H249.785L254.359 12.6836H255.97L251.695 17.2773L255.97 22.8654H254.479L250.939 18.1324L249.666 19.5643V22.8654H248.433ZM258.799 12.6836V22.8654H257.566V12.6836H258.799ZM269.345 12.6836V22.8654H268.152L262.603 14.8711H262.504V22.8654H261.271V12.6836H262.464L268.032 20.6978H268.132V12.6836H269.345ZM283.943 15.8654H282.71C282.637 15.5108 282.509 15.1992 282.327 14.9307C282.148 14.6623 281.929 14.4369 281.671 14.2546C281.416 14.069 281.132 13.9298 280.821 13.837C280.509 13.7442 280.184 13.6978 279.846 13.6978C279.23 13.6978 278.671 13.8536 278.171 14.1651C277.674 14.4767 277.277 14.9357 276.983 15.5422C276.691 16.1488 276.545 16.8929 276.545 17.7745C276.545 18.6561 276.691 19.4002 276.983 20.0067C277.277 20.6133 277.674 21.0723 278.171 21.3839C278.671 21.6954 279.23 21.8512 279.846 21.8512C280.184 21.8512 280.509 21.8048 280.821 21.712C281.132 21.6192 281.416 21.4816 281.671 21.2994C281.929 21.1137 282.148 20.8867 282.327 20.6182C282.509 20.3465 282.637 20.0349 282.71 19.6836H283.943C283.85 20.2039 283.681 20.6696 283.436 21.0806C283.19 21.4916 282.885 21.8413 282.521 22.1296C282.156 22.4146 281.747 22.6317 281.293 22.7809C280.842 22.93 280.36 23.0046 279.846 23.0046C278.978 23.0046 278.206 22.7925 277.529 22.3682C276.853 21.944 276.321 21.3408 275.934 20.5586C275.546 19.7764 275.352 18.8484 275.352 17.7745C275.352 16.7006 275.546 15.7726 275.934 14.9904C276.321 14.2082 276.853 13.605 277.529 13.1807C278.206 12.7565 278.978 12.5444 279.846 12.5444C280.36 12.5444 280.842 12.619 281.293 12.7681C281.747 12.9172 282.156 13.136 282.521 13.4244C282.885 13.7094 283.19 14.0574 283.436 14.4684C283.681 14.8761 283.85 15.3417 283.943 15.8654ZM286.353 22.8654H285.06L288.799 12.6836H290.071L293.81 22.8654H292.517L289.475 14.2944H289.395L286.353 22.8654ZM286.83 18.8881H292.04V19.9819H286.83V18.8881ZM295.396 22.8654V12.6836H298.836C299.632 12.6836 300.285 12.8195 300.795 13.0913C301.306 13.3597 301.683 13.7293 301.929 14.1999C302.174 14.6706 302.297 15.2058 302.297 15.8057C302.297 16.4056 302.174 16.9376 301.929 17.4016C301.683 17.8656 301.307 18.2302 300.8 18.4954C300.293 18.7572 299.645 18.8881 298.856 18.8881H296.072V17.7745H298.816C299.36 17.7745 299.798 17.6949 300.129 17.5359C300.464 17.3768 300.706 17.1514 300.855 16.8597C301.007 16.5647 301.084 16.2134 301.084 15.8057C301.084 15.3981 301.007 15.0418 300.855 14.7369C300.702 14.4319 300.459 14.1966 300.124 14.0309C299.789 13.8619 299.347 13.7773 298.797 13.7773H296.629V22.8654H295.396ZM300.189 18.2915L302.694 22.8654H301.263L298.797 18.2915H300.189ZM304.351 22.8654V12.6836H310.496V13.7773H305.584V17.2177H310.178V18.3114H305.584V21.7717H310.576V22.8654H304.351Z"/><path fill="#F7F7F8" d="M449.648 0H365.449C354.792 0 346.153 9.35592 346.153 20.897C346.153 32.4382 354.792 41.7941 365.449 41.7941H449.648C460.305 41.7941 468.944 32.4382 468.944 20.897C468.944 9.35592 460.305 0 449.648 0Z"/><path fill="#DB12EF" d="M172.492 0H133.9C123.243 0 114.604 9.35592 114.604 20.897C114.604 32.4382 123.243 41.7941 133.9 41.7941H172.492C183.148 41.7941 191.787 32.4382 191.787 20.897C191.787 9.35592 183.148 0 172.492 0Z"/><path fill="#fff" d="M135.718 22.8654V12.6836H139.277C139.987 12.6836 140.572 12.8062 141.032 13.0515C141.493 13.2934 141.836 13.6199 142.062 14.0309C142.287 14.4386 142.4 14.891 142.4 15.3881C142.4 15.8256 142.322 16.1869 142.166 16.4719C142.014 16.757 141.811 16.9824 141.559 17.1481C141.311 17.3138 141.041 17.4364 140.749 17.516V17.6154C141.061 17.6353 141.374 17.7447 141.689 17.9435C142.004 18.1424 142.267 18.4274 142.479 18.7986C142.691 19.1699 142.797 19.6239 142.797 20.1609C142.797 20.6713 142.681 21.1303 142.449 21.538C142.217 21.9457 141.851 22.2688 141.351 22.5074C140.85 22.7461 140.199 22.8654 139.397 22.8654H135.718ZM136.951 21.7717H139.397C140.202 21.7717 140.774 21.6159 141.112 21.3043C141.453 20.9895 141.624 20.6083 141.624 20.1609C141.624 19.8162 141.536 19.498 141.361 19.2063C141.185 18.9113 140.935 18.676 140.61 18.5003C140.285 18.3214 139.901 18.2319 139.456 18.2319H136.951V21.7717ZM136.951 17.158H139.238C139.609 17.158 139.944 17.0851 140.242 16.9393C140.544 16.7934 140.782 16.5879 140.958 16.3228C141.137 16.0576 141.226 15.7461 141.226 15.3881C141.226 14.9407 141.071 14.5612 140.759 14.2496C140.447 13.9348 139.954 13.7773 139.277 13.7773H136.951V17.158ZM146.911 23.0444C146.427 23.0444 145.988 22.9532 145.594 22.7709C145.199 22.5853 144.886 22.3185 144.654 21.9705C144.422 21.6192 144.306 21.1949 144.306 20.6978C144.306 20.2603 144.392 19.9056 144.565 19.6339C144.737 19.3588 144.967 19.1433 145.256 18.9876C145.544 18.8318 145.862 18.7158 146.21 18.6395C146.562 18.56 146.915 18.497 147.269 18.4506C147.733 18.391 148.11 18.3462 148.398 18.3164C148.69 18.2833 148.902 18.2286 149.034 18.1523C149.17 18.0761 149.238 17.9435 149.238 17.7546V17.7148C149.238 17.2243 149.104 16.8431 148.835 16.5714C148.57 16.2996 148.168 16.1637 147.627 16.1637C147.067 16.1637 146.628 16.2863 146.31 16.5316C145.992 16.7769 145.768 17.0387 145.639 17.3171L144.525 16.9194C144.724 16.4554 144.989 16.0941 145.32 15.8356C145.655 15.5737 146.02 15.3914 146.414 15.2887C146.812 15.1826 147.203 15.1296 147.587 15.1296C147.833 15.1296 148.114 15.1594 148.433 15.2191C148.754 15.2754 149.064 15.3931 149.362 15.5721C149.664 15.7511 149.914 16.0212 150.113 16.3824C150.312 16.7437 150.411 17.2276 150.411 17.8342V22.8654H149.238V21.8313H149.178C149.099 21.997 148.966 22.1744 148.781 22.3633C148.595 22.5522 148.348 22.7129 148.04 22.8455C147.732 22.9781 147.355 23.0444 146.911 23.0444ZM147.09 21.9904C147.554 21.9904 147.945 21.8993 148.264 21.717C148.585 21.5347 148.827 21.2994 148.989 21.011C149.155 20.7226 149.238 20.4194 149.238 20.1012V19.0273C149.188 19.087 149.079 19.1417 148.91 19.1914C148.744 19.2378 148.552 19.2792 148.333 19.3157C148.118 19.3488 147.907 19.3787 147.702 19.4052C147.5 19.4284 147.336 19.4483 147.21 19.4648C146.905 19.5046 146.62 19.5692 146.355 19.6587C146.093 19.7449 145.881 19.8758 145.718 20.0515C145.559 20.2238 145.48 20.4592 145.48 20.7574C145.48 21.1651 145.63 21.4734 145.932 21.6822C146.237 21.8877 146.623 21.9904 147.09 21.9904ZM155.635 25.8881C155.068 25.8881 154.581 25.8152 154.174 25.6694C153.766 25.5269 153.426 25.3379 153.154 25.1026C152.886 24.8706 152.672 24.622 152.513 24.3569L153.448 23.7006C153.554 23.8398 153.688 23.9989 153.85 24.1779C154.013 24.3602 154.235 24.5176 154.517 24.6502C154.802 24.7861 155.175 24.854 155.635 24.854C156.252 24.854 156.76 24.7049 157.162 24.4066C157.563 24.1083 157.763 23.641 157.763 23.0046V21.4535H157.664C157.577 21.5927 157.455 21.765 157.296 21.9705C157.14 22.1727 156.915 22.3533 156.62 22.5124C156.328 22.6682 155.934 22.7461 155.436 22.7461C154.82 22.7461 154.266 22.6003 153.776 22.3086C153.289 22.0169 152.903 21.5927 152.617 21.0359C152.336 20.479 152.195 19.8029 152.195 19.0074C152.195 18.2253 152.332 17.5441 152.608 16.9641C152.883 16.3808 153.265 15.93 153.756 15.6119C154.247 15.2904 154.813 15.1296 155.456 15.1296C155.953 15.1296 156.348 15.2125 156.64 15.3782C156.934 15.5406 157.16 15.7262 157.316 15.935C157.475 16.1405 157.597 16.3095 157.684 16.4421H157.803V15.229H158.936V23.0842C158.936 23.7404 158.787 24.274 158.489 24.685C158.194 25.0993 157.796 25.4026 157.296 25.5948C156.799 25.7904 156.245 25.8881 155.635 25.8881ZM155.595 21.6921C156.066 21.6921 156.464 21.5844 156.789 21.369C157.113 21.1535 157.36 20.8436 157.529 20.4393C157.698 20.0349 157.783 19.551 157.783 18.9876C157.783 18.4374 157.7 17.9518 157.534 17.5309C157.369 17.11 157.123 16.7802 156.799 16.5415C156.474 16.3029 156.073 16.1836 155.595 16.1836C155.098 16.1836 154.684 16.3095 154.353 16.5614C154.024 16.8133 153.778 17.1514 153.612 17.5756C153.449 17.9999 153.368 18.4705 153.368 18.9876C153.368 19.5179 153.451 19.9869 153.617 20.3945C153.786 20.7989 154.034 21.1171 154.363 21.3491C154.694 21.5778 155.105 21.6921 155.595 21.6921ZM166.493 16.9393L165.439 17.2376C165.373 17.0619 165.275 16.8912 165.146 16.7255C165.02 16.5565 164.848 16.4172 164.629 16.3079C164.41 16.1985 164.13 16.1438 163.789 16.1438C163.321 16.1438 162.932 16.2515 162.62 16.467C162.312 16.6791 162.158 16.9492 162.158 17.2773C162.158 17.569 162.264 17.7994 162.476 17.9684C162.688 18.1374 163.02 18.2783 163.47 18.391L164.604 18.6694C165.287 18.8351 165.796 19.0887 166.13 19.43C166.465 19.7681 166.632 20.2039 166.632 20.7376C166.632 21.1751 166.506 21.5662 166.255 21.9109C166.006 22.2556 165.658 22.5273 165.211 22.7262C164.763 22.9251 164.243 23.0245 163.649 23.0245C162.871 23.0245 162.226 22.8555 161.716 22.5174C161.205 22.1793 160.882 21.6855 160.746 21.0359L161.86 20.7574C161.966 21.1684 162.166 21.4767 162.461 21.6822C162.76 21.8877 163.149 21.9904 163.63 21.9904C164.176 21.9904 164.611 21.8744 164.932 21.6424C165.257 21.4071 165.419 21.1253 165.419 20.7972C165.419 20.5321 165.327 20.31 165.141 20.131C164.955 19.9487 164.67 19.8128 164.286 19.7234L163.013 19.4251C162.314 19.2593 161.8 19.0025 161.472 18.6545C161.147 18.3031 160.985 17.864 160.985 17.337C160.985 16.9061 161.106 16.525 161.348 16.1935C161.593 15.8621 161.926 15.6019 162.347 15.413C162.771 15.2241 163.252 15.1296 163.789 15.1296C164.544 15.1296 165.138 15.2953 165.568 15.6268C166.003 15.9582 166.311 16.3957 166.493 16.9393Z"/><path fill="#F7F7F8" d="M19.2957 0H80.1063C85.2238 0 90.1318 2.20165 93.7504 6.1206C97.3691 10.0396 99.402 15.3548 99.402 20.897C99.402 26.4393 97.3691 31.7545 93.7504 35.6735C90.1318 39.5924 85.2238 41.7941 80.1063 41.7941H19.2957C14.1781 41.7941 9.27022 39.5924 5.65157 35.6735C2.03293 31.7545 0 26.4393 0 20.897C0 15.3548 2.03293 10.0396 5.65157 6.1206C9.27022 2.20165 14.1781 0 19.2957 0Z"/><path fill="#000" d="M26.6815 15.229C26.6218 14.7253 26.3799 14.3342 25.9557 14.0557C25.5314 13.7773 25.0111 13.6381 24.3946 13.6381C23.9438 13.6381 23.5494 13.711 23.2113 13.8569C22.8766 14.0027 22.6147 14.2032 22.4258 14.4584C22.2402 14.7136 22.1474 15.0037 22.1474 15.3285C22.1474 15.6003 22.212 15.8339 22.3413 16.0295C22.4739 16.2217 22.6429 16.3824 22.8484 16.5117C23.0539 16.6377 23.2693 16.7421 23.4947 16.8249C23.7201 16.9045 23.9272 16.9691 24.1162 17.0188L25.1503 17.2972C25.4154 17.3668 25.7104 17.4629 26.0352 17.5856C26.3633 17.7082 26.6765 17.8756 26.9748 18.0877C27.2764 18.2965 27.525 18.565 27.7206 18.8931C27.9161 19.2212 28.0139 19.6239 28.0139 20.1012C28.0139 20.6514 27.8697 21.1485 27.5814 21.5927C27.2963 22.0368 26.8787 22.3898 26.3285 22.6516C25.7816 22.9135 25.1171 23.0444 24.3349 23.0444C23.6057 23.0444 22.9744 22.9267 22.4407 22.6914C21.9104 22.4561 21.4928 22.1279 21.1879 21.707C20.8863 21.2861 20.7156 20.7972 20.6758 20.2404H21.9486C21.9817 20.6249 22.111 20.9431 22.3363 21.1949C22.565 21.4435 22.8534 21.6291 23.2014 21.7518C23.5527 21.8711 23.9306 21.9307 24.3349 21.9307C24.8056 21.9307 25.2281 21.8545 25.6027 21.702C25.9772 21.5463 26.2738 21.3308 26.4926 21.0557C26.7113 20.7773 26.8207 20.4525 26.8207 20.0813C26.8207 19.7432 26.7263 19.4681 26.5373 19.256C26.3484 19.0439 26.0998 18.8716 25.7916 18.739C25.4834 18.6064 25.1503 18.4904 24.7923 18.391L23.5395 18.033C22.744 17.8043 22.1143 17.4779 21.6503 17.0536C21.1862 16.6294 20.9542 16.0742 20.9542 15.3881C20.9542 14.8181 21.1084 14.3209 21.4166 13.8967C21.7281 13.4691 22.1458 13.1377 22.6694 12.9023C23.1964 12.6637 23.7847 12.5444 24.4343 12.5444C25.0906 12.5444 25.6739 12.662 26.1843 12.8974C26.6948 13.1294 27.0991 13.4476 27.3974 13.8519C27.699 14.2563 27.8581 14.7153 27.8747 15.229H26.6815ZM34.6945 19.7432V15.229H35.8678V22.8654H34.6945V21.5728H34.6149C34.4359 21.9606 34.1575 22.2904 33.7797 22.5621C33.4019 22.8306 32.9246 22.9648 32.3479 22.9648C31.8706 22.9648 31.4464 22.8604 31.0752 22.6516C30.7039 22.4395 30.4123 22.1213 30.2002 21.6971C29.988 21.2695 29.882 20.7309 29.882 20.0813V15.229H31.0553V20.0018C31.0553 20.5586 31.211 21.0027 31.5226 21.3342C31.8375 21.6656 32.2385 21.8313 32.7257 21.8313C33.0174 21.8313 33.314 21.7567 33.6156 21.6076C33.9206 21.4584 34.1758 21.2297 34.3813 20.9215C34.5901 20.6133 34.6945 20.2205 34.6945 19.7432ZM38.0167 25.729V15.229H39.1503V16.4421H39.2895C39.3756 16.3095 39.495 16.1405 39.6474 15.935C39.8032 15.7262 40.0253 15.5406 40.3136 15.3782C40.6053 15.2125 40.9997 15.1296 41.4968 15.1296C42.1398 15.1296 42.7066 15.2904 43.1971 15.6119C43.6877 15.9333 44.0705 16.3891 44.3456 16.979C44.6207 17.569 44.7582 18.265 44.7582 19.0671C44.7582 19.8758 44.6207 20.5768 44.3456 21.1701C44.0705 21.7601 43.6893 22.2174 43.2021 22.5422C42.7149 22.8637 42.1531 23.0245 41.5167 23.0245C41.0262 23.0245 40.6334 22.9433 40.3385 22.7809C40.0435 22.6152 39.8165 22.4279 39.6574 22.2191C39.4983 22.007 39.3756 21.8313 39.2895 21.6921H39.19V25.729H38.0167ZM39.1701 19.0472C39.1701 19.6239 39.2547 20.1327 39.4237 20.5735C39.5927 21.011 39.8397 21.354 40.1645 21.6026C40.4893 21.8479 40.887 21.9705 41.3576 21.9705C41.8482 21.9705 42.2575 21.8413 42.5856 21.5827C42.9171 21.3209 43.1656 20.9696 43.3314 20.5288C43.5004 20.0846 43.5849 19.5908 43.5849 19.0472C43.5849 18.5103 43.5021 18.0264 43.3363 17.5955C43.1739 17.1613 42.927 16.8183 42.5956 16.5664C42.2674 16.3112 41.8548 16.1836 41.3576 16.1836C40.8804 16.1836 40.4793 16.3046 40.1545 16.5465C39.8297 16.7851 39.5844 17.1199 39.4187 17.5508C39.253 17.9783 39.1701 18.4771 39.1701 19.0472ZM46.548 25.729V15.229H47.6815V16.4421H47.8207C47.9069 16.3095 48.0262 16.1405 48.1787 15.935C48.3344 15.7262 48.5565 15.5406 48.8449 15.3782C49.1365 15.2125 49.5309 15.1296 50.0281 15.1296C50.6711 15.1296 51.2379 15.2904 51.7284 15.6119C52.2189 15.9333 52.6017 16.3891 52.8768 16.979C53.1519 17.569 53.2895 18.265 53.2895 19.0671C53.2895 19.8758 53.1519 20.5768 52.8768 21.1701C52.6017 21.7601 52.2206 22.2174 51.7334 22.5422C51.2461 22.8637 50.6843 23.0245 50.048 23.0245C49.5575 23.0245 49.1647 22.9433 48.8697 22.7809C48.5747 22.6152 48.3477 22.4279 48.1886 22.2191C48.0295 22.007 47.9069 21.8313 47.8207 21.6921H47.7213V25.729H46.548ZM47.7014 19.0472C47.7014 19.6239 47.7859 20.1327 47.9549 20.5735C48.124 21.011 48.3709 21.354 48.6957 21.6026C49.0205 21.8479 49.4182 21.9705 49.8889 21.9705C50.3794 21.9705 50.7888 21.8413 51.1169 21.5827C51.4483 21.3209 51.6969 20.9696 51.8626 20.5288C52.0316 20.0846 52.1162 19.5908 52.1162 19.0472C52.1162 18.5103 52.0333 18.0264 51.8676 17.5955C51.7052 17.1613 51.4583 16.8183 51.1268 16.5664C50.7987 16.3112 50.3861 16.1836 49.8889 16.1836C49.4116 16.1836 49.0106 16.3046 48.6858 16.5465C48.361 16.7851 48.1157 17.1199 47.95 17.5508C47.7843 17.9783 47.7014 18.4771 47.7014 19.0472ZM56.2525 12.6836V22.8654H55.0792V12.6836H56.2525ZM58.4015 22.8654V15.229H59.5748V22.8654H58.4015ZM58.9981 13.9563C58.7694 13.9563 58.5722 13.8784 58.4065 13.7226C58.2441 13.5669 58.1629 13.3796 58.1629 13.1609C58.1629 12.9421 58.2441 12.7548 58.4065 12.5991C58.5722 12.4433 58.7694 12.3654 58.9981 12.3654C59.2268 12.3654 59.4223 12.4433 59.5847 12.5991C59.7505 12.7548 59.8333 12.9421 59.8333 13.1609C59.8333 13.3796 59.7505 13.5669 59.5847 13.7226C59.4223 13.8784 59.2268 13.9563 58.9981 13.9563ZM64.9255 23.0245C64.1897 23.0245 63.555 22.8621 63.0214 22.5373C62.491 22.2092 62.0817 21.7518 61.7934 21.1651C61.5083 20.5752 61.3658 19.8891 61.3658 19.1069C61.3658 18.3247 61.5083 17.6353 61.7934 17.0387C62.0817 16.4388 62.4828 15.9715 62.9965 15.6367C63.5135 15.2986 64.1168 15.1296 64.8062 15.1296C65.2039 15.1296 65.5966 15.1959 65.9844 15.3285C66.3722 15.461 66.7252 15.6765 67.0434 15.9748C67.3616 16.2698 67.6151 16.6609 67.804 17.1481C67.9929 17.6353 68.0874 18.2352 68.0874 18.9478V19.4449H62.201V18.4307H66.8942C66.8942 17.9999 66.808 17.6154 66.6357 17.2773C66.4667 16.9393 66.2247 16.6725 65.9098 16.4769C65.5983 16.2814 65.2304 16.1836 64.8062 16.1836C64.3388 16.1836 63.9345 16.2996 63.5931 16.5316C63.255 16.7603 62.9948 17.0586 62.8125 17.4265C62.6303 17.7944 62.5391 18.1888 62.5391 18.6097V19.2859C62.5391 19.8626 62.6385 20.3514 62.8374 20.7525C63.0396 21.1502 63.3196 21.4535 63.6776 21.6623C64.0356 21.8678 64.4515 21.9705 64.9255 21.9705C65.2337 21.9705 65.5121 21.9274 65.7607 21.8413C66.0126 21.7518 66.2297 21.6192 66.412 21.4435C66.5943 21.2645 66.7351 21.0425 66.8346 20.7773L67.9681 21.0955C67.8488 21.48 67.6482 21.8181 67.3665 22.1097C67.0848 22.3981 66.7368 22.6235 66.3225 22.7859C65.9082 22.9449 65.4425 23.0245 64.9255 23.0245ZM75.2813 16.9393L74.2273 17.2376C74.161 17.0619 74.0633 16.8912 73.934 16.7255C73.808 16.5565 73.6357 16.4172 73.4169 16.3079C73.1982 16.1985 72.9181 16.1438 72.5767 16.1438C72.1094 16.1438 71.72 16.2515 71.4084 16.467C71.1002 16.6791 70.9461 16.9492 70.9461 17.2773C70.9461 17.569 71.0521 17.7994 71.2642 17.9684C71.4764 18.1374 71.8078 18.2783 72.2586 18.391L73.3921 18.6694C74.0749 18.8351 74.5836 19.0887 74.9184 19.43C75.2531 19.7681 75.4205 20.2039 75.4205 20.7376C75.4205 21.1751 75.2946 21.5662 75.0427 21.9109C74.7941 22.2556 74.4461 22.5273 73.9986 22.7262C73.5512 22.9251 73.0308 23.0245 72.4375 23.0245C71.6587 23.0245 71.014 22.8555 70.5036 22.5174C69.9932 22.1793 69.67 21.6855 69.5341 21.0359L70.6478 20.7574C70.7538 21.1684 70.9544 21.4767 71.2493 21.6822C71.5476 21.8877 71.9371 21.9904 72.4177 21.9904C72.9645 21.9904 73.3987 21.8744 73.7202 21.6424C74.045 21.4071 74.2074 21.1253 74.2074 20.7972C74.2074 20.5321 74.1146 20.31 73.929 20.131C73.7434 19.9487 73.4584 19.8128 73.0739 19.7234L71.8012 19.4251C71.1018 19.2593 70.5881 19.0025 70.26 18.6545C69.9352 18.3031 69.7728 17.864 69.7728 17.337C69.7728 16.9061 69.8937 16.525 70.1357 16.1935C70.381 15.8621 70.7141 15.6019 71.135 15.413C71.5592 15.2241 72.0398 15.1296 72.5767 15.1296C73.3324 15.1296 73.9257 15.2953 74.3566 15.6268C74.7908 15.9582 75.099 16.3957 75.2813 16.9393Z"/></g></svg>