<svg width="45" height="38" viewBox="0 0 45 38" fill="none" xmlns="http://www.w3.org/2000/svg">
<mask id="mask0_109_79" style="mask-type:luminance" maskUnits="userSpaceOnUse" x="0" y="0" width="45" height="38">
<path d="M27.4938 -2.34684e-05L0 13.0723L17.476 38L44.9698 24.9276L27.4938 -2.34684e-05Z" fill="white"/>
</mask>
<g mask="url(#mask0_109_79)">
<path d="M27.2805 8.41063C28.0848 9.5579 27.7111 10.9756 26.4457 11.5773L27.902 13.6546C30.4327 12.4514 31.1803 9.6158 29.5716 7.32127L27.2805 8.41063ZM22.6982 10.5894C21.8939 9.4421 22.2676 8.02435 23.533 7.42269L22.0767 5.34539C19.546 6.54865 18.7984 9.3842 20.407 11.6787L22.6982 10.5894ZM23.533 7.42269C24.7984 6.82104 26.4762 7.26337 27.2805 8.41063L29.5716 7.32127C27.963 5.02674 24.6074 4.14213 22.0767 5.34539L23.533 7.42269ZM36.0185 20.8745C36.8228 22.0218 36.4491 23.4395 35.1837 24.0411L36.64 26.1184C39.1707 24.9152 39.9182 22.0796 38.3096 19.7851L36.0185 20.8745ZM35.1837 24.0411C33.9183 24.6428 32.2405 24.2005 31.4362 23.0532L29.145 24.1426C30.7536 26.437 34.1093 27.3217 36.64 26.1184L35.1837 24.0411ZM32.271 19.8865C33.5364 19.2849 35.2142 19.7272 36.0185 20.8745L38.3096 19.7851C36.701 17.4906 33.3454 16.606 30.8147 17.8092L32.271 19.8865ZM17.0677 24.3454C15.8024 24.947 14.1246 24.5047 13.3203 23.3575L11.0291 24.4468C12.6377 26.7413 15.9933 27.626 18.5241 26.4227L17.0677 24.3454ZM13.3203 23.3575C12.5159 22.2102 12.8897 20.7924 14.1551 20.1908L12.6987 18.1135C10.168 19.3168 9.42049 22.1523 11.0291 24.4468L13.3203 23.3575ZM17.9026 21.1787C18.1381 21.5146 18.2714 21.8704 18.3127 22.2218L21.0135 22.1782C20.9303 21.4705 20.6608 20.7556 20.1937 20.0894L17.9026 21.1787ZM18.3127 22.2218C18.4142 23.0846 17.963 23.9197 17.0677 24.3454L18.5241 26.4227C20.3197 25.5689 21.2154 23.8943 21.0135 22.1782L18.3127 22.2218ZM14.1551 20.1908C15.0504 19.7651 16.1542 19.8609 17.0108 20.3647L18.4069 18.4602C16.7033 17.4583 14.4944 17.2597 12.6987 18.1135L14.1551 20.1908ZM17.0108 20.3647C17.3596 20.5698 17.6671 20.8428 17.9026 21.1787L20.1937 20.0894C19.7267 19.4232 19.1096 18.8735 18.4069 18.4602L17.0108 20.3647ZM18.8724 20.0978L24.0555 13.0411L21.7283 11.6703L16.5452 18.727L18.8724 20.0978ZM26.4457 11.5773C25.5504 12.003 24.4466 11.9072 23.59 11.4034L22.1939 13.3078C23.8975 14.3099 26.1064 14.5083 27.902 13.6546L26.4457 11.5773ZM23.59 11.4034C23.2412 11.1983 22.9337 10.9252 22.6982 10.5894L20.407 11.6787C20.874 12.3449 21.4912 12.8946 22.1939 13.3078L23.59 11.4034ZM19.8021 23.3727L29.8146 23.2045L29.5366 20.8593L19.5241 21.0274L19.8021 23.3727ZM31.4362 23.0532C31.2007 22.7173 31.0673 22.3615 31.026 22.0101L28.3253 22.0537C28.4085 22.7614 28.678 23.4764 29.145 24.1426L31.4362 23.0532ZM31.026 22.0101C30.9245 21.1473 31.3757 20.3122 32.271 19.8865L30.8147 17.8092C29.0191 18.6629 28.1233 20.3376 28.3253 22.0537L31.026 22.0101Z" fill="#FEBF2C"/>
</g>
</svg>
