<svg width="52" height="21" viewBox="0 0 52 21" fill="none" xmlns="http://www.w3.org/2000/svg">
<path d="M6.35728 9.42752C6.43414 9.6941 6.46562 9.97171 6.45041 10.2487C6.44244 10.5246 6.41128 10.7993 6.35728 11.07L11.2996 14.6753C11.8927 14.1526 12.6543 13.861 13.4448 13.8541C14.0736 13.8677 14.6844 14.0666 15.2006 14.4258C15.7168 14.7851 16.1155 15.2887 16.3467 15.8736C16.5779 16.4585 16.6314 17.0986 16.5003 17.7137C16.3693 18.3289 16.0596 18.8916 15.6101 19.3315C15.1605 19.7714 14.5912 20.0688 13.9734 20.1864C13.3555 20.3041 12.7167 20.2368 12.137 19.9929C11.5573 19.749 11.0624 19.3395 10.7144 18.8156C10.3665 18.2917 10.1809 17.6767 10.1809 17.0478C10.1889 16.772 10.2201 16.4972 10.2741 16.2266L5.33175 12.6213C4.87301 13.0347 4.30424 13.3062 3.69433 13.403C3.08443 13.4998 2.45954 13.4177 1.89534 13.1666C1.33113 12.9156 0.851815 12.5063 0.515425 11.9884C0.179035 11.4706 0 10.8663 0 10.2487C0 9.63119 0.179035 9.0269 0.515425 8.50902C0.851815 7.99114 1.33113 7.5819 1.89534 7.33084C2.45954 7.07978 3.08443 6.99768 3.69433 7.09447C4.30424 7.19127 4.87301 7.46281 5.33175 7.87621L10.2741 4.27086C10.2224 3.98436 10.1913 3.69452 10.1809 3.40358C10.1569 2.64532 10.3949 1.90193 10.8549 1.29865C11.3149 0.695377 11.9687 0.269078 12.7063 0.0915733C13.4439 -0.0859312 14.2201 -0.00379258 14.9042 0.324152C15.5883 0.652096 16.1385 1.2058 16.462 1.89199C16.7856 2.57818 16.8627 3.35492 16.6805 4.09135C16.4982 4.82778 16.0678 5.47889 15.4615 5.935C14.8553 6.39111 14.1104 6.62433 13.3523 6.59539C12.5942 6.56645 11.8693 6.2771 11.2996 5.7761L6.35728 9.42752ZM13.4428 4.77661C13.7121 4.77011 13.9734 4.68433 14.1942 4.53C14.4149 4.37567 14.5852 4.15965 14.6838 3.90899C14.7824 3.65833 14.8048 3.38417 14.7483 3.12081C14.6918 2.85746 14.5589 2.61663 14.3662 2.42846C14.1735 2.24029 13.9295 2.11314 13.6649 2.06294C13.4003 2.01274 13.1267 2.04171 12.8785 2.14623C12.6302 2.25075 12.4184 2.42617 12.2693 2.65054C12.1203 2.8749 12.0408 3.13824 12.0407 3.40758C12.0393 3.59058 12.0748 3.77197 12.1452 3.9409C12.2155 4.10982 12.3193 4.2628 12.4502 4.39064C12.5812 4.51849 12.7366 4.61858 12.9071 4.6849C13.0777 4.75122 13.2599 4.78242 13.4428 4.77661ZM13.4428 18.4639C13.7121 18.4574 13.9734 18.3716 14.1942 18.2173C14.4149 18.063 14.5852 17.847 14.6838 17.5963C14.7824 17.3456 14.8048 17.0715 14.7483 16.8081C14.6918 16.5448 14.5589 16.3039 14.3662 16.1158C14.1735 15.9276 13.9295 15.8004 13.6649 15.7502C13.4003 15.7 13.1267 15.729 12.8785 15.8335C12.6302 15.9381 12.4184 16.1135 12.2693 16.3378C12.1203 16.5622 12.0408 16.8255 12.0407 17.0949C12.0393 17.2779 12.0748 17.4593 12.1452 17.6282C12.2155 17.7971 12.3193 17.9501 12.4502 18.0779C12.5812 18.2058 12.7366 18.3059 12.9071 18.3722C13.0777 18.4385 13.2599 18.4697 13.4428 18.4639ZM3.18657 11.6208C3.45584 11.6143 3.7172 11.5285 3.93795 11.3742C4.1587 11.2198 4.32902 11.0038 4.42759 10.7531C4.52615 10.5025 4.54859 10.2283 4.4921 9.96497C4.4356 9.70162 4.30267 9.46078 4.10996 9.27261C3.91725 9.08444 3.67331 8.9573 3.40869 8.9071C3.14406 8.8569 2.87051 8.88587 2.62227 8.99039C2.37403 9.09491 2.16214 9.27033 2.01312 9.49469C1.8641 9.71906 1.78457 9.98239 1.78449 10.2517C1.78305 10.4347 1.81858 10.6161 1.88896 10.7851C1.95933 10.954 2.06309 11.107 2.19402 11.2348C2.32496 11.3626 2.48036 11.4627 2.65092 11.5291C2.82147 11.5954 3.00367 11.6266 3.18657 11.6208Z" fill="#78849E"/>
<mask id="mask0_317_3073" style="mask-type:luminance" maskUnits="userSpaceOnUse" x="30" y="-1" width="26" height="25">
<path d="M55.0045 -0.788279H30.9688V23.2474H55.0045V-0.788279Z" fill="white"/>
</mask>
<g mask="url(#mask0_317_3073)">
<path d="M43.2731 4.65154C43.7089 4.18899 44.2366 3.82251 44.8222 3.57556C45.4079 3.32861 46.0386 3.20663 46.6741 3.21741C49.6645 3.21741 52 5.635 52 9.0761C52 11.1241 50.9755 12.8457 49.1317 14.6844C48.7221 15.094 47.4933 16.2007 47.4523 16.2417C47.288 16.406 47.0837 16.5692 46.8784 16.7745C46.633 16.9748 46.3456 17.2252 46.1002 17.4305C45.5264 17.9222 44.9125 18.3729 44.2976 18.8236C44.0986 18.9637 43.907 19.1141 43.7237 19.2742C43.6387 19.324 43.5567 19.3788 43.4784 19.4385C43.3414 19.5381 43.1765 19.5917 43.0072 19.5917C42.8378 19.5917 42.6729 19.5381 42.536 19.4385C42.4576 19.3788 42.3756 19.324 42.2906 19.2742C42.1264 19.1511 41.922 18.9878 41.7167 18.8236C41.1018 18.3729 40.4879 17.8812 39.9141 17.4305C39.6276 17.1851 39.3813 16.9798 39.1359 16.7745C38.9356 16.6103 38.7674 16.406 38.5621 16.2417C38.4799 16.2007 37.2511 15.095 36.8415 14.6844C34.9567 12.8457 33.9733 11.1292 33.9733 9.0761C33.9733 5.635 36.3087 3.21741 39.2992 3.21741C39.9353 3.20607 40.5668 3.32778 41.1532 3.57475C41.7396 3.82171 42.2679 4.18848 42.7042 4.65154C42.8083 4.73671 42.9029 4.83273 42.9866 4.93796C43.0716 4.83252 43.1676 4.7365 43.2731 4.65154ZM43.3141 17.5567C43.888 17.106 44.5019 16.6553 45.0347 16.2047C45.2981 16.0068 45.5446 15.7874 45.7718 15.5487C45.9586 15.3952 46.1365 15.231 46.3045 15.057C46.3867 14.9749 47.6155 13.8692 47.984 13.4997C49.5414 11.9424 50.3606 10.5954 50.3606 9.0751C50.3606 6.53533 48.7221 4.85484 46.6731 4.85484C45.8275 4.86169 45.0184 5.20008 44.4198 5.79724C44.218 5.99509 44.0392 6.21515 43.887 6.45321C43.8048 6.5764 43.7638 6.69858 43.7227 6.73964C43.6573 6.88608 43.551 7.01045 43.4164 7.09772C43.2819 7.185 43.125 7.23144 42.9646 7.23144C42.8042 7.23144 42.6473 7.185 42.5128 7.09772C42.3782 7.01045 42.2718 6.88608 42.2065 6.73964C42.1567 6.64138 42.1019 6.54578 42.0422 6.45321C41.8875 6.21694 41.709 5.99714 41.5094 5.79724C41.2235 5.49888 40.88 5.26156 40.4998 5.09959C40.1195 4.93762 39.7104 4.85436 39.2972 4.85484C37.2491 4.85484 35.6097 6.53433 35.6097 9.0751C35.6097 10.5914 36.4289 11.9434 37.9862 13.5407C38.3548 13.9093 39.5886 15.0159 39.6657 15.098C39.8337 15.272 40.0116 15.4362 40.1985 15.5898C40.4439 15.7901 40.6902 15.9994 40.9356 16.2457C41.4684 16.6964 42.0823 17.1471 42.6561 17.5977C42.7793 17.6799 42.8564 17.762 42.9836 17.8431C43.0727 17.7268 43.184 17.6294 43.3111 17.5567H43.3141Z" fill="#78849E"/>
</g>
</svg>
