<svg xmlns="http://www.w3.org/2000/svg" width="14" height="21" fill="none" viewBox="0 0 14 21"><path fill="#FF0E0E" fill-rule="evenodd" d="M3.37905 1.03773L7.06858 0.457949C10.2892 -0.0481423 11.8995 -0.301188 12.9497 0.596932C14 1.49505 14 3.12511 14 6.38521V9.36873H8.08062L10.7809 5.99342L9.21913 4.74403L5.21913 9.74403L4.71938 10.3687L5.21913 10.9934L9.21913 15.9934L10.7809 14.744L8.08062 11.3687H14V14.3522C14 17.6123 14 19.2424 12.9497 20.1405C11.8995 21.0386 10.2892 20.7856 7.06857 20.2795L3.37905 19.6997C1.76632 19.4463 0.95995 19.3196 0.479975 18.7583C0 18.197 0 17.3807 0 15.7482V4.98924C0 3.35672 0 2.54046 0.479975 1.97917C0.95995 1.41788 1.76632 1.29116 3.37905 1.03773Z" clip-rule="evenodd"/></svg>