<svg xmlns="http://www.w3.org/2000/svg" width="16" height="16" fill="none" viewBox="0 0 16 16"><mask id="mask0_216_2132" style="mask-type:luminance" width="24" height="24" x="-4" y="-4" maskUnits="userSpaceOnUse"><path fill="#fff" d="M20 -4H-4V20H20V-4Z"/></mask><g mask="url(#mask0_216_2132)"><path fill="#DB12EF" d="M7.25 15.25V8.75H0.75C0.551088 8.75 0.360379 8.67099 0.219727 8.53033C0.0790743 8.38968 0 8.19891 0 8C0 7.80109 0.0790743 7.61032 0.219727 7.46967C0.360379 7.32901 0.551088 7.25 0.75 7.25H7.25V0.75C7.25 0.551088 7.32907 0.360318 7.46973 0.219666C7.61038 0.0790132 7.80109 0 8 0C8.19891 0 8.38962 0.0790132 8.53027 0.219666C8.67093 0.360318 8.75 0.551088 8.75 0.75V7.25H15.25C15.4489 7.25 15.6396 7.32901 15.7803 7.46967C15.9209 7.61032 16 7.80109 16 8C16 8.19891 15.9209 8.38968 15.7803 8.53033C15.6396 8.67099 15.4489 8.75 15.25 8.75H8.75V15.25C8.75 15.4489 8.67093 15.6397 8.53027 15.7803C8.38962 15.921 8.19891 16 8 16C7.80109 16 7.61038 15.921 7.46973 15.7803C7.32907 15.6397 7.25 15.4489 7.25 15.25Z"/></g></svg>