<svg xmlns="http://www.w3.org/2000/svg" width="16" height="16" fill="none" viewBox="0 0 16 16"><g clip-path="url(#clip0_197_1279)"><path fill="#A98518" d="M12.1201 14.6801C12.0141 14.6801 11.9075 14.6547 11.8095 14.6034L8.00015 12.5994L4.19015 14.6027C3.96615 14.7221 3.69348 14.7014 3.48815 14.5521C3.28282 14.4027 3.18015 14.1501 3.22282 13.9001L3.95015 9.65939L0.868151 6.65739C0.686817 6.48072 0.620817 6.21606 0.699484 5.97406C0.777484 5.73339 0.986151 5.55672 1.23682 5.52072L5.49748 4.89739L7.40215 1.03806C7.62682 0.582724 8.37282 0.582724 8.59748 1.03806L10.5021 4.89739L14.7628 5.52072C15.0141 5.55739 15.2221 5.73339 15.3008 5.97472C15.3788 6.21606 15.3141 6.48072 15.1315 6.65806L12.0495 9.66006L12.7768 13.9007C12.8195 14.1507 12.7168 14.4034 12.5121 14.5527C12.3955 14.6367 12.2581 14.6801 12.1201 14.6801ZM10.8681 11.0621L3.99999 13.6001C4.15732 13.7534 5.36082 9.32339 5.32348 9.53939L4.76482 12.7947L7.68948 11.2567C7.88348 11.1541 11.006 10.2974 11.2 10.4001L11.2341 12.7947L10.8681 11.0621C10.8308 10.8461 10.7108 9.10272 10.8681 8.94872L13.2341 6.64406L9.59999 4.80007C9.96695 4.43541 9.55948 5.99806 9.46215 5.80139L8.00015 2.83939L9.59999 4.80007C10.3127 4.60874 13.4515 6.61272 13.2341 6.64406L10.8681 11.0621Z"/></g><defs><clipPath id="clip0_197_1279"><rect width="15.056" height="15.056" fill="#fff" transform="scale(1.06271)"/></clipPath></defs></svg>