<svg xmlns="http://www.w3.org/2000/svg" width="23" height="21" fill="none" viewBox="0 0 23 21"><path fill="#B2ABB2" d="M18.7328 1.90962H20.2904C20.9814 1.90962 21.6442 2.16138 22.1328 2.60953C22.6214 3.05768 22.8959 3.66551 22.8959 4.29929V18.61C22.8961 18.9239 22.8288 19.2347 22.6979 19.5247C22.567 19.8147 22.3751 20.0782 22.1331 20.3001C21.8911 20.522 21.6038 20.698 21.2877 20.8181C20.9715 20.9381 20.6326 20.9998 20.2904 20.9997H2.60551C1.91449 20.9997 1.25176 20.7479 0.763137 20.2998C0.274509 19.8516 2.32741e-07 19.2438 2.32741e-07 18.61V4.29929C-0.000144431 3.98543 0.0671504 3.67463 0.198038 3.38464C0.328926 3.09465 0.520841 2.83117 0.762814 2.60924C1.00479 2.38731 1.29207 2.21129 1.60825 2.09125C1.92443 1.9712 2.26331 1.90948 2.60551 1.90962H4.16309V0.954556C4.16309 0.829202 4.19001 0.705075 4.24232 0.589263C4.29462 0.473451 4.37128 0.368222 4.46793 0.279583C4.56457 0.190944 4.67931 0.120632 4.80558 0.0726613C4.93185 0.0246904 5.06719 0 5.20387 0C5.34054 0 5.47588 0.0246904 5.60215 0.0726613C5.72843 0.120632 5.84316 0.190944 5.93981 0.279583C6.03645 0.368222 6.11311 0.473451 6.16542 0.589263C6.21772 0.705075 6.24464 0.829202 6.24464 0.954556V1.90861H8.32619V0.954556C8.32619 0.701392 8.43584 0.458597 8.63102 0.279583C8.82621 0.100569 9.09093 1.20351e-07 9.36696 1.20351e-07C9.64299 1.20351e-07 9.90772 0.100569 10.1029 0.279583C10.2981 0.458597 10.4077 0.701392 10.4077 0.954556V1.90861H12.4893V0.954556C12.4893 0.701392 12.5989 0.458597 12.7941 0.279583C12.9893 0.100569 13.254 1.20351e-07 13.5301 1.20351e-07C13.8061 1.20351e-07 14.0708 0.100569 14.266 0.279583C14.4612 0.458597 14.5708 0.701392 14.5708 0.954556V1.90861H16.6524V0.954556C16.6524 0.701392 16.762 0.458597 16.9572 0.279583C17.1524 0.100569 17.4171 1.20351e-07 17.6931 1.20351e-07C17.9692 1.20351e-07 18.2339 0.100569 18.4291 0.279583C18.6243 0.458597 18.7339 0.701392 18.7339 0.954556V1.90861L18.7328 1.90962ZM18.7328 3.81873V4.77278C18.7328 5.02594 18.6232 5.26874 18.428 5.44775C18.2328 5.62676 17.9681 5.72733 17.692 5.72733C17.416 5.72733 17.1513 5.62676 16.9561 5.44775C16.7609 5.26874 16.6513 5.02594 16.6513 4.77278V3.81873H14.5697V4.77278C14.5697 5.02594 14.4601 5.26874 14.2649 5.44775C14.0697 5.62676 13.805 5.72733 13.529 5.72733C13.2529 5.72733 12.9882 5.62676 12.793 5.44775C12.5978 5.26874 12.4882 5.02594 12.4882 4.77278V3.81873H10.4077V4.77278C10.4077 5.02594 10.2981 5.26874 10.1029 5.44775C9.90772 5.62676 9.64299 5.72733 9.36696 5.72733C9.09093 5.72733 8.82621 5.62676 8.63102 5.44775C8.43584 5.26874 8.32619 5.02594 8.32619 4.77278V3.81873H6.24464V4.77278C6.24464 5.02594 6.13499 5.26874 5.93981 5.44775C5.74462 5.62676 5.4799 5.72733 5.20387 5.72733C4.92784 5.72733 4.66311 5.62676 4.46793 5.44775C4.27275 5.26874 4.16309 5.02594 4.16309 4.77278V3.81873H2.60551C2.53666 3.81859 2.46846 3.83093 2.40483 3.85504C2.34119 3.87914 2.28337 3.91453 2.23469 3.95918C2.18601 4.00383 2.14742 4.05686 2.12114 4.11523C2.09486 4.17359 2.0814 4.23614 2.08155 4.29929V18.61C2.08155 18.7375 2.13675 18.8597 2.23501 18.9499C2.33327 19.04 2.46655 19.0906 2.60551 19.0906H20.2904C20.3593 19.0907 20.4275 19.0784 20.4911 19.0543C20.5547 19.0302 20.6125 18.9948 20.6612 18.9501C20.7099 18.9055 20.7485 18.8525 20.7748 18.7941C20.8011 18.7357 20.8145 18.6732 20.8144 18.61V4.29929C20.8144 4.17183 20.7592 4.0496 20.6609 3.95948C20.5626 3.86936 20.4294 3.81873 20.2904 3.81873H18.7328ZM5.20332 10.0226C4.92729 10.0226 4.66256 9.92201 4.46738 9.743C4.2722 9.56398 4.16254 9.32119 4.16254 9.06802C4.16254 8.81486 4.2722 8.57207 4.46738 8.39305C4.66256 8.21404 4.92729 8.11347 5.20332 8.11347H16.1306C16.4066 8.11347 16.6714 8.21404 16.8665 8.39305C17.0617 8.57207 17.1714 8.81486 17.1714 9.06802C17.1714 9.32119 17.0617 9.56398 16.8665 9.743C16.6714 9.92201 16.4066 10.0226 16.1306 10.0226H5.20332ZM5.20332 13.3633C4.92729 13.3633 4.66256 13.2627 4.46738 13.0837C4.2722 12.9047 4.16254 12.6619 4.16254 12.4087C4.16254 12.1556 4.2722 11.9128 4.46738 11.7337C4.66256 11.5547 4.92729 11.4542 5.20332 11.4542H17.6926C17.9686 11.4542 18.2334 11.5547 18.4285 11.7337C18.6237 11.9128 18.7334 12.1556 18.7334 12.4087C18.7334 12.6619 18.6237 12.9047 18.4285 13.0837C18.2334 13.2627 17.9686 13.3633 17.6926 13.3633H5.20332ZM5.20332 16.704C4.92729 16.704 4.66256 16.6034 4.46738 16.4244C4.2722 16.2454 4.16254 16.0026 4.16254 15.7494C4.16254 15.4962 4.2722 15.2535 4.46738 15.0744C4.66256 14.8954 4.92729 14.7949 5.20332 14.7949H12.4882C12.7642 14.7949 13.0289 14.8954 13.2241 15.0744C13.4193 15.2535 13.529 15.4962 13.529 15.7494C13.529 16.0026 13.4193 16.2454 13.2241 16.4244C13.0289 16.6034 12.7642 16.704 12.4882 16.704H5.20332Z"/></svg>