<svg width="24" height="24" viewBox="0 0 24 24" fill="none" xmlns="http://www.w3.org/2000/svg">
<path d="M8.01 15C7.458 15 7.005 14.553 7.005 14C7.005 13.447 7.448 13 8 13H8.01C8.56201 13 9.01 13.447 9.01 14C9.01 14.553 8.56201 15 8.01 15Z" fill="white"/>
<path d="M11.005 14C11.005 14.553 11.458 15 12.01 15C12.562 15 13.01 14.553 13.01 14C13.01 13.447 12.562 13 12.01 13H12C11.448 13 11.005 13.447 11.005 14Z" fill="white"/>
<path d="M16.01 15C15.457 15 15.005 14.553 15.005 14C15.005 13.447 15.447 13 16 13H16.01C16.563 13 17.01 13.447 17.01 14C17.01 14.553 16.563 15 16.01 15Z" fill="white"/>
<path d="M7.005 18C7.005 18.553 7.458 19 8.01 19C8.56201 19 9.01 18.553 9.01 18C9.01 17.447 8.56201 17 8.01 17H8C7.448 17 7.005 17.447 7.005 18Z" fill="white"/>
<path d="M12.01 19C11.458 19 11.005 18.553 11.005 18C11.005 17.447 11.448 17 12 17H12.01C12.562 17 13.01 17.447 13.01 18C13.01 18.553 12.562 19 12.01 19Z" fill="white"/>
<path d="M15.005 18C15.005 18.553 15.457 19 16.01 19C16.563 19 17.01 18.553 17.01 18C17.01 17.447 16.563 17 16.01 17H16C15.447 17 15.005 17.447 15.005 18Z" fill="white"/>
<path fill-rule="evenodd" clip-rule="evenodd" d="M22 6C22 4.346 20.654 3 19 3H17V2C17 1.448 16.553 1 16 1C15.447 1 15 1.448 15 2V3H9V2C9 1.448 8.552 1 8 1C7.448 1 7 1.448 7 2V3H5C3.346 3 2 4.346 2 6V20C2 21.654 3.346 23 5 23H19C20.654 23 22 21.654 22 20V6ZM15 6C15 6.552 15.447 7 16 7C16.553 7 17 6.552 17 6V5H19C19.552 5 20 5.449 20 6V9H4V6C4 5.449 4.449 5 5 5H7V6C7 6.552 7.448 7 8 7C8.552 7 9 6.552 9 6V5H15V6ZM4 11H20V20C20 20.552 19.552 21 19 21H5C4.449 21 4 20.552 4 20V11Z" fill="white"/>
</svg>
