<svg xmlns="http://www.w3.org/2000/svg" width="17" height="18" fill="none" viewBox="0 0 17 18"><path fill="#FA7ECA" fill-rule="evenodd" d="M3.61137 11.1772C3.84046 12.3122 4.78688 13.1216 5.85749 13.1216H13.4528C14.5458 13.1199 15.4737 12.3261 15.7097 11.192L16.9816 5.09823C17.0325 4.85468 16.9762 4.60129 16.8304 4.40693C16.6839 4.2134 16.4633 4.10024 16.2288 4.10024H3.76332L3.06836 0.648658C2.99199 0.270616 2.67806 0 2.31399 0H0.771331C0.345556 0 0 0.367381 0 0.820047C0 1.27271 0.345556 1.64009 0.771331 1.64009H1.68999L2.37956 5.06051C2.38216 5.07922 2.38587 5.09675 2.38975 5.11509C2.39046 5.11846 2.39118 5.12186 2.3919 5.1253L3.61137 11.1772ZM5.1201 10.8336L4.09345 5.74033H15.2685L14.2041 10.8369C14.1262 11.2092 13.8107 11.4807 13.4528 11.4807H5.89143C5.51656 11.4725 5.19723 11.2182 5.1201 10.8336Z" clip-rule="evenodd"/><path fill="#FA7ECA" d="M5.36076 18C6.21275 18 6.90342 17.2657 6.90342 16.3599C6.90342 15.4541 6.21275 14.7198 5.36076 14.7198C4.50877 14.7198 3.8181 15.4541 3.8181 16.3599C3.8181 17.2657 4.50877 18 5.36076 18Z"/><path fill="#FA7ECA" d="M13.8454 18C14.6974 18 15.3881 17.2657 15.3881 16.3599C15.3881 15.4541 14.6974 14.7198 13.8454 14.7198C12.9934 14.7198 12.3027 15.4541 12.3027 16.3599C12.3027 17.2657 12.9934 18 13.8454 18Z"/></svg>