<svg width="245" height="88" viewBox="0 0 245 88" fill="none" xmlns="http://www.w3.org/2000/svg">
<path d="M233 88H12C10.4235 88.0045 8.86169 87.6961 7.40508 87.093C5.94846 86.4898 4.62593 85.6037 3.51403 84.486C2.39625 83.3742 1.51015 82.0517 0.90697 80.5951C0.303788 79.1384 -0.0044702 77.5766 4.89783e-05 76V12C-0.00428399 10.4234 0.304168 8.86158 0.90752 7.40495C1.51087 5.94832 2.39715 4.62584 3.51506 3.51405C4.62682 2.39644 5.94918 1.5104 7.40563 0.907226C8.86207 0.304051 10.4237 -0.0042866 12 4.50124e-05H226.918V12C226.92 13.5908 227.553 15.1158 228.677 16.2406C229.802 17.3655 231.327 17.9982 232.918 18H245V76C245.004 77.5765 244.696 79.1382 244.092 80.5946C243.489 82.0511 242.603 83.3734 241.485 84.485C240.373 85.6028 239.051 86.489 237.595 87.0923C236.138 87.6957 234.577 88.0042 233 88Z" fill="#DB12EF"/>
</svg>
