<svg xmlns="http://www.w3.org/2000/svg" width="32" height="30" fill="none" viewBox="0 0 32 30"><path fill="#fff" d="M0 8.05261C0 6.16699 0 5.22419 0.585786 4.6384C1.17157 4.05261 2.11438 4.05261 4 4.05261H28C29.8856 4.05261 30.8284 4.05261 31.4142 4.6384C32 5.22419 32 6.16699 32 8.05261V10.6842C32 11.1556 32 11.3913 31.8536 11.5377C31.7071 11.6842 31.4714 11.6842 31 11.6842H1C0.528596 11.6842 0.292893 11.6842 0.146447 11.5377C0 11.3913 0 11.1556 0 10.6842V8.05261Z"/><path fill="#fff" fill-rule="evenodd" d="M0.585786 29.4142C0 28.8284 0 27.8856 0 26V15.7368C0 15.2654 0 15.0297 0.146447 14.8833C0.292893 14.7368 0.528596 14.7368 1 14.7368H31C31.4714 14.7368 31.7071 14.7368 31.8536 14.8833C32 15.0297 32 15.2654 32 15.7368V26C32 27.8856 32 28.8284 31.4142 29.4142C30.8284 30 29.8856 30 28 30H4C2.11438 30 1.17157 30 0.585786 29.4142ZM9.6 21.3684C9.04772 21.3684 8.6 21.8161 8.6 22.3684C8.6 22.9207 9.04772 23.3684 9.6 23.3684H22.4C22.9523 23.3684 23.4 22.9207 23.4 22.3684C23.4 21.8161 22.9523 21.3684 22.4 21.3684H9.6Z" clip-rule="evenodd"/><path stroke="#fff" stroke-linecap="round" stroke-width="2" d="M8 1L8 5.57895"/><path stroke="#fff" stroke-linecap="round" stroke-width="2" d="M24 1L24 5.57895"/></svg>