<svg width="44" height="44" viewBox="0 0 44 44" fill="none" xmlns="http://www.w3.org/2000/svg">
<rect width="44" height="44" rx="22" fill="#FEBF2C"/>
<path d="M28.18 32.0199C28.021 32.0199 27.861 31.9819 27.714 31.9049L22 28.8989L16.285 31.9039C15.949 32.0829 15.54 32.0519 15.232 31.8279C14.924 31.6039 14.77 31.2249 14.834 30.8499L15.925 24.4889L11.302 19.9859C11.03 19.7209 10.931 19.3239 11.049 18.9609C11.166 18.5999 11.479 18.3349 11.855 18.2809L18.246 17.3459L21.103 11.5569C21.44 10.8739 22.559 10.8739 22.896 11.5569L25.753 17.3459L32.144 18.2809C32.521 18.3359 32.833 18.5999 32.951 18.9619C33.068 19.3239 32.971 19.7209 32.697 19.9869L28.074 24.4899L29.165 30.8509C29.229 31.2259 29.075 31.6049 28.768 31.8289C28.593 31.9549 28.387 32.0199 28.18 32.0199ZM14.148 19.9659L17.697 23.4229C17.933 23.6529 18.041 23.9849 17.985 24.3089L17.147 29.1919L21.534 26.8849C21.825 26.7309 22.174 26.7309 22.465 26.8849L26.851 29.1919L26.014 24.3089C25.958 23.9849 26.066 23.6539 26.302 23.4229L29.851 19.9659L24.945 19.2489C24.62 19.2019 24.339 18.9969 24.193 18.7019L22 14.2589L19.807 18.7019C19.661 18.9969 19.381 19.2019 19.055 19.2489L14.148 19.9659Z" fill="white"/>
</svg>
