<svg xmlns="http://www.w3.org/2000/svg" width="42" height="37" fill="none" viewBox="0 0 42 37"><g clip-path="url(#clip0_197_729)"><path fill="#DB12EF" d="M18.4559 17.3615C18.5798 17.7403 18.6306 18.1348 18.6061 18.5284C18.5932 18.9204 18.543 19.3108 18.4559 19.6954L26.4278 24.8184C27.3844 24.0756 28.6128 23.6614 29.8879 23.6515C30.9022 23.6708 31.8873 23.9535 32.72 24.4639C33.5527 24.9744 34.1958 25.6901 34.5687 26.5212C34.9417 27.3523 35.0278 28.2619 34.8165 29.1359C34.6051 30.01 34.1056 30.8097 33.3805 31.4347C32.6554 32.0597 31.7371 32.4823 30.7405 32.6495C29.744 32.8167 28.7136 32.7211 27.7785 32.3746C26.8434 32.028 26.0452 31.4461 25.4839 30.7017C24.9227 29.9572 24.6233 29.0834 24.6234 28.1897C24.6363 27.7977 24.6865 27.4074 24.7736 27.0228L16.8017 21.8997C16.0618 22.4871 15.1443 22.873 14.1606 23.0105C13.1768 23.1481 12.1689 23.0314 11.2588 22.6747C10.3488 22.3179 9.57563 21.7364 9.03303 21.0005C8.49044 20.2646 8.20166 19.4059 8.20166 18.5284C8.20166 17.6509 8.49044 16.7922 9.03303 16.0564C9.57563 15.3205 10.3488 14.7389 11.2588 14.3822C12.1689 14.0255 13.1768 13.9088 14.1606 14.0463C15.1443 14.1839 16.0618 14.5697 16.8017 15.1572L24.7736 10.0341C24.6903 9.62697 24.6401 9.21512 24.6234 8.8017C24.5846 7.72424 24.9685 6.66791 25.7104 5.81068C26.4524 4.95344 27.5071 4.34768 28.6968 4.09545C29.8865 3.84323 31.1385 3.95994 32.242 4.42594C33.3454 4.89194 34.2328 5.67874 34.7547 6.65379C35.2766 7.62884 35.401 8.73256 35.1071 9.779C34.8131 10.8254 34.1187 11.7506 33.1409 12.3988C32.1631 13.0469 30.9616 13.3783 29.7388 13.3372C28.516 13.296 27.3467 12.8849 26.4278 12.173L18.4559 17.3615ZM29.8847 10.7527C30.319 10.7435 30.7406 10.6216 31.0967 10.4023C31.4527 10.183 31.7275 9.87606 31.8865 9.51988C32.0454 9.1637 32.0816 8.77412 31.9905 8.3999C31.8994 8.02569 31.685 7.68347 31.3741 7.41608C31.0633 7.1487 30.6698 6.96803 30.243 6.8967C29.8161 6.82537 29.3749 6.86654 28.9745 7.01505C28.5741 7.16357 28.2323 7.41284 27.9919 7.73165C27.7516 8.05047 27.6233 8.42466 27.6232 8.80739C27.6209 9.06742 27.6782 9.32518 27.7917 9.56521C27.9052 9.80525 28.0726 10.0226 28.2837 10.2043C28.4949 10.386 28.7456 10.5282 29.0207 10.6224C29.2958 10.7167 29.5897 10.761 29.8847 10.7527ZM29.8847 30.2019C30.319 30.1927 30.7406 30.0708 31.0967 29.8515C31.4527 29.6322 31.7275 29.3253 31.8865 28.9691C32.0454 28.6129 32.0816 28.2233 31.9905 27.8491C31.8994 27.4749 31.685 27.1327 31.3741 26.8653C31.0633 26.5979 30.6698 26.4172 30.243 26.3459C29.8161 26.2746 29.3749 26.3157 28.9745 26.4642C28.5741 26.6128 28.2323 26.862 27.9919 27.1808C27.7516 27.4997 27.6233 27.8739 27.6232 28.2566C27.6209 28.5166 27.6782 28.7744 27.7917 29.0144C27.9052 29.2544 28.0726 29.4718 28.2837 29.6535C28.4949 29.8351 28.7456 29.9774 29.0207 30.0716C29.2958 30.1659 29.5897 30.2102 29.8847 30.2019ZM13.3416 20.478C13.7759 20.4688 14.1975 20.3469 14.5535 20.1276C14.9096 19.9083 15.1843 19.6014 15.3433 19.2452C15.5023 18.889 15.5385 18.4994 15.4474 18.1252C15.3562 17.751 15.1418 17.4088 14.831 17.1414C14.5201 16.874 14.1267 16.6933 13.6998 16.622C13.273 16.5507 12.8318 16.5918 12.4313 16.7404C12.0309 16.8889 11.6892 17.1382 11.4488 17.457C11.2084 17.7758 11.0802 18.15 11.08 18.5327C11.0777 18.7927 11.135 19.0505 11.2485 19.2905C11.362 19.5306 11.5294 19.7479 11.7406 19.9296C11.9518 20.1113 12.2025 20.2535 12.4776 20.3477C12.7527 20.442 13.0465 20.4863 13.3416 20.478Z"/></g><defs><clipPath id="clip0_197_729"><rect width="42" height="37" fill="#fff"/></clipPath></defs></svg>