<svg xmlns="http://www.w3.org/2000/svg" width="24" height="24" fill="none" viewBox="0 0 24 24"><path fill="#fff" d="M18.18 22.02C18.021 22.02 17.861 21.982 17.714 21.905L12 18.899L6.28505 21.904C5.94905 22.083 5.54005 22.052 5.23205 21.828C4.92405 21.604 4.77005 21.225 4.83405 20.85L5.92505 14.489L1.30205 9.98599C1.03005 9.72099 0.931047 9.32399 1.04905 8.96099C1.16605 8.59999 1.47905 8.33499 1.85505 8.28099L8.24605 7.34599L11.103 1.55699C11.44 0.873989 12.559 0.873989 12.896 1.55699L15.753 7.34599L22.144 8.28099C22.521 8.33599 22.833 8.59999 22.951 8.96199C23.068 9.32399 22.971 9.72099 22.697 9.98699L18.074 14.49L19.165 20.851C19.229 21.226 19.075 21.605 18.768 21.829C18.593 21.955 18.387 22.02 18.18 22.02ZM4.14805 9.96599L7.69705 13.423C7.93305 13.653 8.04105 13.985 7.98505 14.309L7.14705 19.192L11.534 16.885C11.825 16.731 12.174 16.731 12.465 16.885L16.851 19.192L16.014 14.309C15.958 13.985 16.066 13.654 16.302 13.423L19.851 9.96599L14.945 9.24899C14.62 9.20199 14.339 8.99699 14.193 8.70199L12 4.25899L9.80705 8.70199C9.66105 8.99699 9.38105 9.20199 9.05505 9.24899L4.14805 9.96599Z"/></svg>