<svg xmlns="http://www.w3.org/2000/svg" width="16" height="17" fill="none" viewBox="0 0 16 17"><path fill="#fff" fill-rule="evenodd" d="M3.39894 10.5563C3.61455 11.6282 4.5053 12.3926 5.51293 12.3926H12.6614C13.6901 12.3911 14.5635 11.6413 14.7856 10.5702L15.9827 4.815C16.0306 4.58498 15.9776 4.34566 15.8404 4.1621C15.7025 3.97933 15.4949 3.87245 15.2742 3.87245H3.54195L2.88786 0.612621C2.81599 0.255581 2.52053 0 2.17788 0H0.725959C0.325229 0 0 0.346971 0 0.774489C0 1.20201 0.325229 1.54898 0.725959 1.54898H1.59058L2.23958 4.77937C2.24204 4.79704 2.24553 4.8136 2.24917 4.83092C2.24985 4.8341 2.25052 4.83731 2.2512 4.84056L3.39894 10.5563ZM4.81891 10.2318L3.85266 5.42142H14.3704L13.3685 10.2349C13.2952 10.5865 12.9983 10.8428 12.6614 10.8428H5.54487C5.19206 10.8351 4.89151 10.595 4.81891 10.2318Z" clip-rule="evenodd"/><path fill="#fff" d="M5.04542 17C5.84729 17 6.49734 16.3065 6.49734 15.451C6.49734 14.5955 5.84729 13.902 5.04542 13.902C4.24355 13.902 3.5935 14.5955 3.5935 15.451C3.5935 16.3065 4.24355 17 5.04542 17Z"/><path fill="#fff" d="M13.031 17C13.8328 17 14.4829 16.3065 14.4829 15.451C14.4829 14.5955 13.8328 13.902 13.031 13.902C12.2291 13.902 11.5791 14.5955 11.5791 15.451C11.5791 16.3065 12.2291 17 13.031 17Z"/></svg>