<svg xmlns="http://www.w3.org/2000/svg" width="30" height="29" fill="none" viewBox="0 0 30 29"><path fill="#FEBF2C" fill-rule="evenodd" d="M14 0L14 9.87389C11.027 9.69342 8.25157 8.71388 6.17777 7.13458C5.19784 6.38832 4.41539 5.54096 3.8401 4.63413C6.37782 1.98751 9.97173 0.248514 14 0ZM16 1.90212e-08V9.87389C18.973 9.69342 21.7484 8.71388 23.8222 7.13458C24.8022 6.38832 25.5846 5.54096 26.1599 4.63413C23.6222 1.98751 20.0283 0.248514 16 1.90212e-08ZM27.4876 6.23681C26.8262 7.15065 26.0008 7.98943 25.034 8.72572C22.5797 10.5947 19.3672 11.6947 16 11.8771V16.1798C17.5087 16.2615 18.9954 16.5279 20.4033 16.972C22.1211 17.5139 23.6961 18.3124 25.034 19.3312C25.9943 20.0625 26.8219 20.8996 27.4879 21.8199C29.0749 19.5898 30 16.9104 30 14.0286C30 11.1465 29.0748 8.46706 27.4876 6.23681ZM26.1598 23.4231C25.58 22.5098 24.7938 21.6622 23.8222 20.9223C22.6838 20.0554 21.3191 19.3581 19.8016 18.8794C18.5915 18.4976 17.3082 18.2626 16 18.1831L16 28.0571C20.0282 27.8086 23.6221 26.0696 26.1598 23.4231ZM14 28.0571L14 18.1831C12.6918 18.2626 11.4085 18.4976 10.1984 18.8794C8.68085 19.3581 7.31618 20.0554 6.17777 20.9223C5.20623 21.6622 4.41999 22.5098 3.84018 23.4231C6.37789 26.0696 9.97178 27.8086 14 28.0571ZM2.51213 21.8199C3.17812 20.8996 4.00572 20.0625 4.96605 19.3312C6.30386 18.3124 7.87891 17.5139 9.59672 16.972C11.0046 16.5279 12.4913 16.2615 14 16.1798V11.8771C10.6328 11.6947 7.42026 10.5947 4.96605 8.72572C3.99921 7.98943 3.1738 7.15065 2.51239 6.23681C0.925194 8.46706 0 11.1465 0 14.0286C0 16.9104 0.925093 19.5898 2.51213 21.8199Z" clip-rule="evenodd"/></svg>