<svg xmlns="http://www.w3.org/2000/svg" width="27" height="30" fill="none" viewBox="0 0 27 30"><path fill="#FEBF2C" d="M6.13423 7.11284C6.48304 3.3052 9.67641 0.390991 13.5 0.390991C17.3236 0.390991 20.517 3.3052 20.8658 7.11284L21.3259 12.1355C21.4298 13.2695 21.4817 13.8365 21.6112 14.3847C21.719 14.841 21.8667 15.287 22.0526 15.7174C22.2759 16.2346 22.5726 16.7205 23.1662 17.6923L25.142 20.9275C25.9648 22.2748 26.3762 22.9485 26.0897 23.4592C25.8031 23.9699 25.0138 23.9699 23.4351 23.9699H3.56491C1.9862 23.9699 1.19685 23.9699 0.910328 23.4592C0.623804 22.9485 1.03522 22.2748 1.85804 20.9275L3.83385 17.6923C4.42736 16.7205 4.72411 16.2346 4.94745 15.7174C5.13334 15.287 5.28102 14.841 5.38881 14.3847C5.5183 13.8365 5.57024 13.2695 5.67412 12.1355L6.13423 7.11284Z"/><path stroke="#FEBF2C" stroke-linecap="round" stroke-width="2" d="M10.8922 27.8449C11.046 28.0015 11.385 28.14 11.8565 28.2387C12.3281 28.3375 12.9058 28.391 13.5002 28.391C14.0946 28.391 14.6723 28.3375 15.1439 28.2387C15.6154 28.14 15.9544 28.0015 16.1082 27.8449"/></svg>