<svg width="44" height="45" viewBox="0 0 44 45" fill="none" xmlns="http://www.w3.org/2000/svg">
<rect y="0.5" width="44" height="44" rx="22" fill="white"/>
<path fill-rule="evenodd" clip-rule="evenodd" d="M17 17.5C17 20.257 19.243 22.5 22 22.5C24.757 22.5 27 20.257 27 17.5C27 14.743 24.757 12.5 22 12.5C19.243 12.5 17 14.743 17 17.5ZM19 17.5C19 15.846 20.346 14.5 22 14.5C23.654 14.5 25 15.846 25 17.5C25 19.154 23.654 20.5 22 20.5C20.346 20.5 19 19.154 19 17.5Z" fill="#FEBF2C"/>
<path d="M28 31.5C28 32.053 28.447 32.5 29 32.5C29.553 32.5 30 32.053 30 31.5V29.5C30 26.743 27.757 24.5 25 24.5H19C16.243 24.5 14 26.743 14 29.5V31.5C14 32.053 14.448 32.5 15 32.5C15.552 32.5 16 32.053 16 31.5V29.5C16 27.846 17.346 26.5 19 26.5H25C26.654 26.5 28 27.846 28 29.5V31.5Z" fill="#FEBF2C"/>
</svg>
