<svg width="25" height="29" viewBox="0 0 25 29" fill="none" xmlns="http://www.w3.org/2000/svg">
<path d="M20.1071 20.1723C21.9561 21.3661 23.3505 22.96 24.1552 24.7587C24.2496 24.9696 24.1304 25.2563 23.8267 25.3248L21.1877 25.9198C15.4678 27.2094 9.53264 27.2093 3.81279 25.9198L1.17379 25.3248C0.870052 25.2563 0.750921 24.9696 0.845263 24.7587C1.65003 22.96 3.04437 21.366 4.89335 20.1723C7.06777 18.7684 9.74171 18.0021 12.5002 18.0021C15.2588 18.0021 17.9327 18.7684 20.1071 20.1723Z" fill="#FEBF2C" stroke="#FEBF2C" stroke-linecap="round"/>
<path d="M19.1892 8.16877C19.1892 12.2259 16.1579 15.4465 12.4996 15.4465C8.84137 15.4465 5.81006 12.2259 5.81006 8.16877C5.81006 4.11161 8.84137 0.890991 12.4996 0.890991C16.1579 0.890991 19.1892 4.11161 19.1892 8.16877Z" fill="#FEBF2C" stroke="#FEBF2C" stroke-linecap="round"/>
</svg>
