<svg width="44" height="44" viewBox="0 0 44 44" fill="none" xmlns="http://www.w3.org/2000/svg">
<rect width="44" height="44" rx="22" fill="#DB12EF"/>
<path fill-rule="evenodd" clip-rule="evenodd" d="M17 17C17 19.757 19.243 22 22 22C24.757 22 27 19.757 27 17C27 14.243 24.757 12 22 12C19.243 12 17 14.243 17 17ZM19 17C19 15.346 20.346 14 22 14C23.654 14 25 15.346 25 17C25 18.654 23.654 20 22 20C20.346 20 19 18.654 19 17Z" fill="white"/>
<path d="M28 31C28 31.553 28.447 32 29 32C29.553 32 30 31.553 30 31V29C30 26.243 27.757 24 25 24H19C16.243 24 14 26.243 14 29V31C14 31.553 14.448 32 15 32C15.552 32 16 31.553 16 31V29C16 27.346 17.346 26 19 26H25C26.654 26 28 27.346 28 29V31Z" fill="white"/>
</svg>